<svg xmlns="http://www.w3.org/2000/svg" xmlns:xlink="http://www.w3.org/1999/xlink" width="1080" zoomAndPan="magnify" viewBox="0 0 810 1439.999935" height="1920" preserveAspectRatio="xMidYMid meet" version="1.0"><metadata><ContainsAiGeneratedContent>Yes</ContainsAiGeneratedContent></metadata><defs><g/><clipPath id="73497e9a58"><path d="M 364.300781 571 L 446 571 L 446 652.996094 L 364.300781 652.996094 Z M 364.300781 571 " clip-rule="nonzero"/></clipPath></defs><g fill="#9b3891" fill-opacity="1"><g transform="translate(265.822758, 647.9207)"><g/></g></g><g fill="#9b3891" fill-opacity="1"><g transform="translate(298.693849, 647.9207)"><g><path d="M 50.1875 -64.71875 C 51.195312 -63.957031 52.007812 -63.0625 52.625 -62.03125 C 53.25 -61 53.570312 -60.050781 53.59375 -59.1875 C 53.625 -58.320312 53.289062 -57.394531 52.59375 -56.40625 C 51.894531 -55.425781 51.050781 -54.625 50.0625 -54 C 49.082031 -53.375 48.113281 -53.0625 47.15625 -53.0625 C 44.46875 -53.0625 40.484375 -54.9375 35.203125 -58.6875 C 32.273438 -60.84375 28.65625 -60.046875 24.34375 -56.296875 C 22.375 -54.765625 21.125 -54 20.59375 -54 C 20.257812 -54 19.828125 -53.566406 19.296875 -52.703125 C 18.765625 -51.835938 18.332031 -50.78125 18 -49.53125 C 17.664062 -48.28125 17.410156 -47.03125 17.234375 -45.78125 C 17.066406 -44.539062 17.019531 -43.460938 17.09375 -42.546875 C 17.164062 -41.640625 17.421875 -41.140625 17.859375 -41.046875 C 17.953125 -41.046875 18.238281 -41.019531 18.71875 -40.96875 C 19.15625 -40.914062 19.851562 -40.867188 20.8125 -40.828125 C 21.675781 -40.828125 22.46875 -40.828125 23.1875 -40.828125 C 24.570312 -40.734375 25.648438 -40.613281 26.421875 -40.46875 C 27.191406 -40.320312 27.835938 -40.054688 28.359375 -39.671875 C 28.890625 -39.285156 29.445312 -38.707031 30.03125 -37.9375 C 31.320312 -36.40625 32.445312 -34.507812 33.40625 -32.25 C 33.738281 -31.382812 33.894531 -30.601562 33.875 -29.90625 C 33.851562 -29.21875 33.742188 -28.664062 33.546875 -28.25 C 33.359375 -27.84375 32.960938 -27.425781 32.359375 -27 C 31.765625 -26.570312 31.257812 -26.269531 30.84375 -26.09375 C 30.4375 -25.925781 29.800781 -25.675781 28.9375 -25.34375 C 28.070312 -25.007812 27.472656 -24.769531 27.140625 -24.625 C 26.273438 -24.238281 25.085938 -23.78125 23.578125 -23.25 C 22.066406 -22.726562 20.972656 -22.3125 20.296875 -22 C 19.628906 -21.6875 18.753906 -21.097656 17.671875 -20.234375 C 16.597656 -19.367188 15.507812 -18.265625 14.40625 -16.921875 C 12.769531 -14.859375 12.046875 -13.175781 12.234375 -11.875 C 12.578125 -9.382812 13.828125 -7.65625 15.984375 -6.6875 C 18.140625 -5.726562 20.671875 -5.453125 23.578125 -5.859375 C 26.484375 -6.273438 29.507812 -6.972656 32.65625 -7.953125 C 35.800781 -8.941406 38.570312 -10.019531 40.96875 -11.1875 C 43.363281 -12.363281 45.066406 -13.363281 46.078125 -14.1875 C 47.179688 -15.09375 48.148438 -15.460938 48.984375 -15.296875 C 49.828125 -15.128906 50.273438 -14.328125 50.328125 -12.890625 C 50.328125 -12.316406 50.085938 -11.628906 49.609375 -10.828125 C 49.128906 -10.035156 48.632812 -9.363281 48.125 -8.8125 C 47.625 -8.257812 46.953125 -7.550781 46.109375 -6.6875 C 45.273438 -5.832031 44.785156 -5.332031 44.640625 -5.1875 C 42.765625 -3.125 40.207031 -1.488281 36.96875 -0.28125 C 33.726562 0.914062 30.257812 1.828125 26.5625 2.453125 C 18.59375 3.742188 12.210938 2.710938 7.421875 -0.640625 C 6.703125 -1.171875 6.078125 -1.703125 5.546875 -2.234375 C 5.015625 -2.765625 4.59375 -3.328125 4.28125 -3.921875 C 3.96875 -4.523438 3.703125 -5.101562 3.484375 -5.65625 C 3.273438 -6.207031 3.15625 -6.828125 3.125 -7.515625 C 3.101562 -8.210938 3.101562 -8.835938 3.125 -9.390625 C 3.15625 -9.941406 3.253906 -10.613281 3.421875 -11.40625 C 3.585938 -12.195312 3.726562 -12.859375 3.84375 -13.390625 C 3.96875 -13.921875 4.148438 -14.640625 4.390625 -15.546875 C 4.773438 -16.890625 6.164062 -19.722656 8.5625 -24.046875 C 11.351562 -29.179688 13.203125 -31.507812 14.109375 -31.03125 C 14.203125 -30.976562 14.273438 -30.929688 14.328125 -30.890625 C 11.929688 -33.960938 10.082031 -36.890625 8.78125 -39.671875 C 7.488281 -42.453125 7.035156 -45.304688 7.421875 -48.234375 C 7.753906 -51.117188 8.59375 -53.710938 9.9375 -56.015625 C 11.28125 -58.316406 13.203125 -60.5 15.703125 -62.5625 C 17.472656 -64.007812 19.378906 -65.140625 21.421875 -65.953125 C 23.460938 -66.765625 26.59375 -67.601562 30.8125 -68.46875 C 32.113281 -68.757812 32.929688 -69.046875 33.265625 -69.328125 C 33.597656 -69.617188 33.742188 -70.242188 33.703125 -71.203125 C 33.597656 -71.640625 33.601562 -72.070312 33.71875 -72.5 C 33.84375 -72.9375 34.035156 -73.34375 34.296875 -73.71875 C 34.566406 -74.101562 34.894531 -74.488281 35.28125 -74.875 C 35.664062 -75.257812 36.070312 -75.582031 36.5 -75.84375 C 36.9375 -76.113281 37.367188 -76.332031 37.796875 -76.5 C 38.234375 -76.664062 38.664062 -76.75 39.09375 -76.75 C 39.957031 -76.75 41.515625 -76.304688 43.765625 -75.421875 C 46.023438 -74.535156 47.15625 -73.875 47.15625 -73.4375 C 47.15625 -73.050781 46.53125 -72.140625 45.28125 -70.703125 C 44.28125 -69.304688 43.882812 -68.332031 44.09375 -67.78125 C 44.3125 -67.226562 45.332031 -66.738281 47.15625 -66.3125 C 48.164062 -66.019531 49.175781 -65.488281 50.1875 -64.71875 Z M 50.1875 -64.71875 "/></g></g></g><g fill="#9b3891" fill-opacity="1"><g transform="translate(343.881345, 647.9207)"><g/></g></g><g fill="#9b3891" fill-opacity="1"><g transform="translate(376.749403, 647.9207)"><g/></g></g><g fill="#9b3891" fill-opacity="1"><g transform="translate(409.617461, 647.9207)"><g/></g></g><g fill="#9b3891" fill-opacity="1"><g transform="translate(442.494618, 647.9207)"><g><path d="M 69.265625 -13.890625 C 69.265625 -13.890625 69.289062 -13.914062 69.34375 -13.96875 C 69.382812 -14.019531 69.429688 -14.046875 69.484375 -14.046875 C 70.628906 -15.046875 71.5625 -15.378906 72.28125 -15.046875 C 72.8125 -14.753906 73.148438 -14.25 73.296875 -13.53125 C 73.585938 -11.664062 72.335938 -9.695312 69.546875 -7.625 C 65.515625 -4.695312 61.363281 -1.914062 57.09375 0.71875 C 56.46875 1.101562 55.988281 1.34375 55.65625 1.4375 C 55.175781 1.53125 54.476562 1.457031 53.5625 1.21875 C 50.78125 0.5 46.414062 -0.789062 40.46875 -2.65625 C 37.875 -3.28125 35.832031 -3.738281 34.34375 -4.03125 C 31.800781 -4.507812 30.097656 -5.015625 29.234375 -5.546875 C 28.460938 -6.023438 26.925781 -5.546875 24.625 -4.109375 C 22.707031 -2.953125 20.832031 -2.0625 19 -1.4375 C 17.175781 -0.8125 15.351562 -0.5 13.53125 -0.5 C 11.707031 -0.5 9.96875 -1.003906 8.3125 -2.015625 C 6.65625 -3.023438 5.226562 -4.535156 4.03125 -6.546875 C 3.789062 -6.929688 3.597656 -7.328125 3.453125 -7.734375 C 3.304688 -8.148438 3.207031 -8.597656 3.15625 -9.078125 C 3.113281 -9.554688 3.09375 -9.953125 3.09375 -10.265625 C 3.09375 -10.578125 3.140625 -11.03125 3.234375 -11.625 C 3.335938 -12.226562 3.410156 -12.632812 3.453125 -12.84375 C 3.503906 -13.0625 3.613281 -13.519531 3.78125 -14.21875 C 3.945312 -14.914062 4.03125 -15.335938 4.03125 -15.484375 C 4.414062 -17.109375 5.078125 -18.628906 6.015625 -20.046875 C 6.953125 -21.460938 8.039062 -22.390625 9.28125 -22.828125 C 10.863281 -23.398438 12.988281 -23.550781 15.65625 -23.28125 C 18.320312 -23.019531 20.132812 -22.507812 21.09375 -21.75 C 23.875 -19.632812 26.046875 -18.851562 27.609375 -19.40625 C 29.171875 -19.957031 30.863281 -22.082031 32.6875 -25.78125 C 33.644531 -27.789062 34.941406 -30.5 36.578125 -33.90625 C 39.835938 -40.625 37.894531 -43.675781 30.75 -43.0625 C 28.25 -42.820312 26.113281 -43.179688 24.34375 -44.140625 C 21.164062 -45.910156 18.546875 -47.109375 16.484375 -47.734375 C 15.140625 -48.117188 14.164062 -48.742188 13.5625 -49.609375 C 12.96875 -50.472656 12.957031 -51.265625 13.53125 -51.984375 C 14.007812 -52.609375 14.851562 -52.679688 16.0625 -52.203125 C 18.507812 -51.140625 20.546875 -50.347656 22.171875 -49.828125 C 23.804688 -49.296875 25.367188 -48.957031 26.859375 -48.8125 C 28.390625 -48.664062 30.285156 -48.617188 32.546875 -48.671875 C 37.203125 -48.671875 40.101562 -49.054688 41.25 -49.828125 C 41.726562 -50.253906 42.328125 -51.054688 43.046875 -52.234375 C 43.773438 -53.410156 44.390625 -54.742188 44.890625 -56.234375 C 45.390625 -57.722656 45.765625 -59.09375 46.015625 -60.34375 C 46.148438 -61.632812 47.046875 -63.421875 48.703125 -65.703125 C 50.359375 -67.984375 52.03125 -69.675781 53.71875 -70.78125 C 55.78125 -72.164062 58.535156 -71.851562 61.984375 -69.84375 C 63.191406 -69.125 63.914062 -68.460938 64.15625 -67.859375 C 64.394531 -67.253906 64.488281 -65.898438 64.4375 -63.796875 C 64.34375 -61.109375 63.957031 -58.78125 63.28125 -56.8125 C 62.613281 -54.84375 61.554688 -53.125 60.109375 -51.65625 C 58.671875 -50.195312 56.78125 -48.890625 54.4375 -47.734375 C 52.175781 -46.628906 50.53125 -45.296875 49.5 -43.734375 C 48.46875 -42.179688 46.96875 -38.8125 45 -33.625 C 41.632812 -24.9375 38.921875 -18.890625 36.859375 -15.484375 C 35.660156 -13.515625 35.382812 -11.90625 36.03125 -10.65625 C 36.6875 -9.40625 38.1875 -8.6875 40.53125 -8.5 C 43.65625 -8.207031 47.085938 -7.460938 50.828125 -6.265625 C 53.179688 -5.453125 55.726562 -5.570312 58.46875 -6.625 C 59.46875 -6.957031 60.410156 -7.363281 61.296875 -7.84375 C 62.191406 -8.320312 63.191406 -8.992188 64.296875 -9.859375 C 65.398438 -10.722656 66.164062 -11.320312 66.59375 -11.65625 C 67.03125 -12 67.921875 -12.742188 69.265625 -13.890625 Z M 52.84375 -61.203125 C 50.875 -57.929688 50.828125 -56.25 52.703125 -56.15625 C 53.378906 -56.25 54.195312 -56.738281 55.15625 -57.625 C 56.113281 -58.519531 56.890625 -59.519531 57.484375 -60.625 C 58.085938 -61.726562 58.242188 -62.519531 57.953125 -63 C 56.847656 -65.15625 55.144531 -64.554688 52.84375 -61.203125 Z M 19.078125 -10.375 C 21.097656 -11.519531 22.082031 -12.476562 22.03125 -13.25 C 21.976562 -14.019531 20.875 -14.785156 18.71875 -15.546875 C 16.800781 -16.367188 15.632812 -16.753906 15.21875 -16.703125 C 14.8125 -16.648438 14.035156 -16.171875 12.890625 -15.265625 C 11.828125 -14.347656 11.332031 -13.503906 11.40625 -12.734375 C 11.476562 -11.972656 12.164062 -11.085938 13.46875 -10.078125 C 14.519531 -9.265625 15.273438 -8.878906 15.734375 -8.921875 C 16.191406 -8.972656 17.304688 -9.457031 19.078125 -10.375 Z M 19.078125 -10.375 "/></g></g></g><g fill="#9b3891" fill-opacity="1"><g transform="translate(511.295397, 647.9207)"><g/></g></g><g clip-path="url(#73497e9a58)"><path fill="#9b3891" d="M 378.046875 652.972656 C 378.214844 652.90625 379.847656 652.28125 380.222656 652.0625 C 381.914062 651.125 383.554688 650.09375 385.179688 649.050781 C 390.679688 645.554688 395.964844 641.648438 401.0625 637.59375 C 415.003906 626.503906 429.433594 613.972656 439.226562 598.929688 C 441.179688 595.933594 443.910156 591.527344 444.992188 587.175781 C 445.734375 584.15625 445.691406 581.167969 444.148438 578.632812 C 442.738281 576.316406 440.457031 575.195312 437.894531 574.847656 C 434.203125 574.339844 429.925781 575.457031 427.046875 576.738281 C 417.476562 581.019531 409.417969 592.722656 407.800781 603.632812 C 407.601562 602.984375 407.382812 602.34375 407.152344 601.710938 C 406.011719 598.511719 404.589844 595.40625 403 592.410156 C 400.148438 587.050781 394.511719 578.871094 387.832031 574.636719 C 383.253906 571.738281 378.203125 570.679688 373.191406 573.460938 C 366.519531 577.164062 364.335938 583.171875 364.753906 589.65625 C 365.375 599.199219 371.722656 609.777344 377.5625 615.285156 C 379.886719 617.484375 382.355469 619.691406 385.015625 621.488281 C 385.878906 622.074219 396.597656 627.859375 402.464844 629.417969 C 402.761719 629.5 403.074219 629.320312 403.15625 629.015625 C 403.238281 628.71875 403.054688 628.402344 402.753906 628.320312 C 397 626.792969 386.5 621.121094 385.648438 620.546875 C 383.046875 618.789062 380.617188 616.613281 378.34375 614.457031 C 372.671875 609.105469 366.492188 598.847656 365.886719 589.582031 C 365.5 583.53125 367.519531 577.917969 373.746094 574.453125 C 378.359375 571.886719 383.007812 572.921875 387.222656 575.597656 C 393.734375 579.722656 399.214844 587.71875 401.996094 592.945312 C 403.566406 595.890625 404.960938 598.953125 406.085938 602.089844 C 406.558594 603.410156 406.980469 604.761719 407.296875 606.125 C 407.382812 606.527344 407.472656 607.578125 407.503906 607.726562 C 407.59375 608.171875 407.988281 608.1875 408.0625 608.1875 C 408.210938 608.195312 408.421875 608.152344 408.5625 607.898438 C 408.578125 607.875 408.636719 607.765625 408.636719 607.519531 C 408.636719 596.046875 417.148438 582.40625 427.511719 577.777344 C 430.230469 576.570312 434.257812 575.496094 437.738281 575.972656 C 439.957031 576.277344 441.957031 577.21875 443.179688 579.230469 C 444.558594 581.496094 444.558594 584.195312 443.886719 586.898438 C 442.835938 591.132812 440.175781 595.398438 438.273438 598.304688 C 428.546875 613.25 414.203125 625.691406 400.355469 636.707031 C 395.285156 640.742188 390.03125 644.617188 384.574219 648.097656 C 382.957031 649.125 381.347656 650.148438 379.671875 651.070312 C 379.289062 651.289062 377.820312 651.839844 377.589844 651.9375 C 377.449219 651.988281 377.390625 652.054688 377.375 652.070312 C 377.121094 652.324219 377.195312 652.578125 377.261719 652.71875 C 377.292969 652.785156 377.449219 653.113281 377.882812 653.03125 C 377.941406 653.015625 377.992188 653.003906 378.046875 652.972656 Z M 378.246094 652.152344 C 378.179688 652.035156 378.007812 651.855469 377.671875 651.914062 C 377.902344 651.871094 378.128906 651.972656 378.246094 652.152344 Z M 378.246094 652.152344 " fill-opacity="1" fill-rule="evenodd"/></g><g fill="#9b3891" fill-opacity="1"><g transform="translate(262.88623, 766.049914)"><g><path d="M 14.28125 -32.890625 C 14.695312 -34.253906 15.164062 -35.265625 15.6875 -35.921875 C 16.207031 -36.585938 17.265625 -37.601562 18.859375 -38.96875 C 19.078125 -39.144531 19.492188 -39.507812 20.109375 -40.0625 C 20.734375 -40.625 21.269531 -41.078125 21.71875 -41.421875 C 22.164062 -41.773438 22.613281 -42.066406 23.0625 -42.296875 C 24.375 -42.878906 26.007812 -43.207031 27.96875 -43.28125 C 29.925781 -43.351562 31.59375 -43.234375 32.96875 -42.921875 C 36.019531 -42.359375 38.09375 -41 39.1875 -38.84375 C 39.914062 -37.363281 40.828125 -35.953125 41.921875 -34.609375 C 43.097656 -33.179688 43.835938 -31.738281 44.140625 -30.28125 C 44.453125 -28.820312 44.425781 -26.90625 44.0625 -24.53125 C 43.632812 -22.039062 43.273438 -20.632812 42.984375 -20.3125 C 42.691406 -19.988281 42.546875 -19.390625 42.546875 -18.515625 C 42.546875 -17.816406 42.378906 -17.132812 42.046875 -16.46875 C 41.679688 -15.757812 40.835938 -14.441406 39.515625 -12.515625 C 37.441406 -9.492188 35.445312 -7.269531 33.53125 -5.84375 C 31.613281 -4.414062 29.085938 -3.222656 25.953125 -2.265625 C 23.878906 -1.648438 22.675781 -1.203125 22.34375 -0.921875 C 21.863281 -0.640625 20.828125 -0.753906 19.234375 -1.265625 C 17.585938 -1.847656 16.707031 -2.140625 16.59375 -2.140625 C 16.425781 -2.140625 15.753906 -1.566406 14.578125 -0.421875 C 13.566406 0.472656 12.554688 1.085938 11.546875 1.421875 C 10.535156 1.785156 9.109375 2 7.265625 2.0625 C 6.171875 2.082031 5.46875 1.988281 5.15625 1.78125 C 4.851562 1.570312 4.351562 0.796875 3.65625 -0.546875 C 2.726562 -2.453125 2.265625 -3.726562 2.265625 -4.375 C 2.265625 -5.238281 2.660156 -6.347656 3.453125 -7.703125 C 4.253906 -9.066406 4.976562 -9.875 5.625 -10.125 C 6.519531 -10.457031 7.664062 -10.59375 9.0625 -10.53125 C 10.46875 -10.476562 11.453125 -10.242188 12.015625 -9.828125 C 13.328125 -8.847656 14.148438 -8.890625 14.484375 -9.953125 C 14.515625 -10.085938 14.613281 -10.351562 14.78125 -10.75 C 14.945312 -11.144531 15.148438 -11.65625 15.390625 -12.28125 C 15.628906 -12.914062 15.816406 -13.46875 15.953125 -13.9375 C 16.992188 -16.488281 17.523438 -18.175781 17.546875 -19 C 17.578125 -19.832031 17.144531 -20.804688 16.25 -21.921875 C 15.269531 -23.148438 14.488281 -24.773438 13.90625 -26.796875 C 13.59375 -28.171875 13.441406 -29.148438 13.453125 -29.734375 C 13.472656 -30.328125 13.75 -31.378906 14.28125 -32.890625 Z M 10.96875 -3.53125 C 11.332031 -3.945312 11.488281 -4.273438 11.4375 -4.515625 C 11.394531 -4.753906 11.066406 -5.179688 10.453125 -5.796875 C 9.617188 -6.640625 9.046875 -7.0625 8.734375 -7.0625 C 8.367188 -7.0625 7.945312 -6.601562 7.46875 -5.6875 C 7 -4.78125 6.832031 -4.085938 6.96875 -3.609375 C 7.164062 -2.941406 7.722656 -2.597656 8.640625 -2.578125 C 9.566406 -2.566406 10.34375 -2.882812 10.96875 -3.53125 Z M 37.046875 -33.890625 C 35.816406 -35.628906 35.085938 -36.90625 34.859375 -37.71875 C 34.742188 -38.050781 34.578125 -38.382812 34.359375 -38.71875 C 34.128906 -39.082031 33.847656 -39.367188 33.515625 -39.578125 C 33.179688 -39.796875 32.847656 -39.90625 32.515625 -39.90625 C 32.421875 -39.84375 31.34375 -39.703125 29.28125 -39.484375 C 27.957031 -39.335938 26.960938 -39.113281 26.296875 -38.8125 C 25.617188 -38.5 24.679688 -37.796875 23.484375 -36.703125 C 21.773438 -35.253906 20.566406 -34.050781 19.859375 -33.09375 C 19.160156 -32.144531 18.6875 -31.109375 18.4375 -29.984375 C 18.238281 -29.085938 18.285156 -28.117188 18.578125 -27.078125 C 18.878906 -26.046875 19.238281 -25.53125 19.65625 -25.53125 C 19.9375 -25.53125 20.226562 -25.789062 20.53125 -26.3125 C 20.84375 -26.832031 21.125 -27.503906 21.375 -28.328125 C 21.625 -29.148438 21.78125 -29.984375 21.84375 -30.828125 C 21.894531 -31.160156 21.925781 -31.53125 21.9375 -31.9375 C 21.957031 -32.34375 21.96875 -32.613281 21.96875 -32.75 C 21.96875 -32.894531 21.992188 -33.082031 22.046875 -33.3125 C 22.109375 -33.53125 22.160156 -33.679688 22.203125 -33.765625 C 22.242188 -33.847656 22.347656 -33.957031 22.515625 -34.09375 C 22.679688 -34.238281 22.832031 -34.359375 22.96875 -34.453125 C 23.113281 -34.554688 23.351562 -34.71875 23.6875 -34.9375 C 24.582031 -35.414062 25.425781 -35.640625 26.21875 -35.609375 C 27.019531 -35.585938 27.628906 -35.316406 28.046875 -34.796875 C 28.472656 -34.273438 28.503906 -33.664062 28.140625 -32.96875 C 27.660156 -32.019531 27.253906 -30.773438 26.921875 -29.234375 C 26.359375 -27.273438 25.585938 -25.359375 24.609375 -23.484375 C 23.859375 -21.960938 23.445312 -21.023438 23.375 -20.671875 C 23.300781 -20.328125 23.503906 -19.988281 23.984375 -19.65625 C 24.628906 -19.238281 26.039062 -19.125 28.21875 -19.3125 C 29.90625 -19.488281 31.226562 -19.4375 32.1875 -19.15625 C 33.15625 -18.875 33.640625 -18.410156 33.640625 -17.765625 C 33.640625 -17.035156 33.113281 -16.554688 32.0625 -16.328125 C 31.007812 -16.109375 29.28125 -16.070312 26.875 -16.21875 C 26.09375 -16.238281 25.503906 -16.265625 25.109375 -16.296875 C 24.722656 -16.328125 24.289062 -16.328125 23.8125 -16.296875 C 23.3125 -16.265625 22.988281 -16.25 22.84375 -16.25 C 22.644531 -16.226562 22.40625 -16.144531 22.125 -16 C 21.851562 -15.863281 21.679688 -15.726562 21.609375 -15.59375 C 21.535156 -15.46875 21.429688 -15.238281 21.296875 -14.90625 C 21.148438 -14.601562 21.035156 -14.3125 20.953125 -14.03125 C 20.898438 -13.78125 20.816406 -13.375 20.703125 -12.8125 C 20.285156 -11.101562 19.738281 -9.703125 19.0625 -8.609375 C 18.445312 -7.546875 18.265625 -6.675781 18.515625 -6 C 18.597656 -5.582031 18.773438 -5.320312 19.046875 -5.21875 C 19.316406 -5.125 19.84375 -5.148438 20.625 -5.296875 C 21.96875 -5.492188 23.015625 -5.59375 23.765625 -5.59375 C 24.691406 -5.59375 25.628906 -6.066406 26.578125 -7.015625 C 27.484375 -7.910156 28.476562 -8.597656 29.5625 -9.078125 C 30.601562 -9.523438 31.125 -9.859375 31.125 -10.078125 C 31.125 -10.304688 31.988281 -11.398438 33.71875 -13.359375 C 35.238281 -15.117188 36.335938 -16.707031 37.015625 -18.125 C 37.703125 -19.539062 38.300781 -21.5625 38.8125 -24.1875 C 39.34375 -26.59375 39.5 -28.40625 39.28125 -29.625 C 39.070312 -30.84375 38.328125 -32.265625 37.046875 -33.890625 Z M 37.046875 -33.890625 "/></g></g></g><g fill="#9b3891" fill-opacity="1"><g transform="translate(303.773392, 766.049914)"><g><path d="M 4.578125 -26.875 L 4.5 -26.875 C 4.5 -26.875 4.503906 -26.875 4.515625 -26.875 Z M 9.625 -30.75 C 9.53125 -30.632812 9.421875 -30.492188 9.296875 -30.328125 C 9.171875 -30.160156 8.921875 -29.84375 8.546875 -29.375 C 8.171875 -28.914062 7.785156 -28.515625 7.390625 -28.171875 C 6.992188 -27.835938 6.535156 -27.53125 6.015625 -27.25 C 5.503906 -26.976562 5.023438 -26.851562 4.578125 -26.875 C 4.628906 -27.019531 4.65625 -27.398438 4.65625 -28.015625 L 7.734375 -33.4375 C 7.734375 -33.4375 7.734375 -33.710938 7.734375 -34.265625 C 7.984375 -35.390625 9.171875 -35.429688 11.296875 -34.390625 C 11.328125 -34.367188 11.351562 -34.347656 11.375 -34.328125 C 11.40625 -34.316406 11.460938 -34.273438 11.546875 -34.203125 C 11.628906 -34.140625 11.695312 -34.066406 11.75 -33.984375 C 11.8125 -33.898438 11.847656 -33.789062 11.859375 -33.65625 C 11.878906 -33.53125 11.867188 -33.394531 11.828125 -33.25 C 11.785156 -33.113281 11.691406 -32.960938 11.546875 -32.796875 C 11.410156 -32.628906 11.226562 -32.445312 11 -32.25 Z M 21.296875 -7.140625 C 21.910156 -7.640625 22.445312 -7.84375 22.90625 -7.75 C 23.375 -7.65625 23.609375 -7.210938 23.609375 -6.421875 C 23.609375 -6.222656 23.570312 -6.019531 23.5 -5.8125 C 23.425781 -5.601562 23.3125 -5.398438 23.15625 -5.203125 C 23.007812 -5.003906 22.863281 -4.828125 22.71875 -4.671875 C 22.582031 -4.523438 22.394531 -4.359375 22.15625 -4.171875 C 21.914062 -3.992188 21.71875 -3.851562 21.5625 -3.75 C 21.40625 -3.65625 21.207031 -3.523438 20.96875 -3.359375 C 20.738281 -3.191406 20.566406 -3.082031 20.453125 -3.03125 C 19.804688 -2.582031 19.117188 -2.203125 18.390625 -1.890625 C 18.367188 -1.859375 18.304688 -1.820312 18.203125 -1.78125 C 18.109375 -1.738281 18.003906 -1.695312 17.890625 -1.65625 C 17.773438 -1.613281 17.660156 -1.570312 17.546875 -1.53125 C 17.441406 -1.488281 17.351562 -1.453125 17.28125 -1.421875 L 17.171875 -1.390625 C 15.460938 -0.691406 13.628906 -0.285156 11.671875 -0.171875 C 9.628906 -0.0546875 8.144531 -0.238281 7.21875 -0.71875 C 7.132812 -0.769531 6.703125 -0.960938 5.921875 -1.296875 C 5.140625 -1.640625 4.566406 -1.9375 4.203125 -2.1875 C 3.585938 -2.601562 2.972656 -3.507812 2.359375 -4.90625 C 1.265625 -7.425781 0.71875 -9.65625 0.71875 -11.59375 C 0.71875 -12.769531 0.925781 -14.3125 1.34375 -16.21875 C 1.34375 -16.269531 1.40625 -16.546875 1.53125 -17.046875 C 1.65625 -17.554688 1.738281 -17.898438 1.78125 -18.078125 C 1.820312 -18.265625 1.90625 -18.550781 2.03125 -18.9375 C 2.15625 -19.332031 2.273438 -19.660156 2.390625 -19.921875 C 2.503906 -20.191406 2.644531 -20.4375 2.8125 -20.65625 C 3.375 -21.46875 3.835938 -22.054688 4.203125 -22.421875 C 5.742188 -24.023438 7.660156 -24.726562 9.953125 -24.53125 C 12.359375 -24.332031 13.675781 -23.535156 13.90625 -22.140625 C 14.070312 -21.046875 14 -19.921875 13.6875 -18.765625 C 13.382812 -17.617188 13.019531 -16.660156 12.59375 -15.890625 C 12.175781 -15.117188 11.582031 -14.128906 10.8125 -12.921875 C 10.039062 -11.722656 9.488281 -10.800781 9.15625 -10.15625 C 7.894531 -7.832031 7.265625 -6.445312 7.265625 -6 C 7.265625 -5.632812 7.613281 -5.117188 8.3125 -4.453125 C 8.789062 -4.035156 9.203125 -3.78125 9.546875 -3.6875 C 9.898438 -3.601562 10.539062 -3.648438 11.46875 -3.828125 C 12.894531 -4.046875 14.460938 -4.394531 16.171875 -4.875 C 16.585938 -5.007812 17.148438 -5.222656 17.859375 -5.515625 C 18.578125 -5.816406 19.28125 -6.117188 19.96875 -6.421875 C 20.65625 -6.734375 21.097656 -6.972656 21.296875 -7.140625 Z M 7.0625 -13.390625 C 8.207031 -15.578125 8.78125 -16.894531 8.78125 -17.34375 C 8.78125 -17.875 8.484375 -18.21875 7.890625 -18.375 C 7.304688 -18.53125 6.847656 -18.394531 6.515625 -17.96875 C 6.234375 -17.632812 5.953125 -17.132812 5.671875 -16.46875 C 5.421875 -15.789062 5.210938 -15.101562 5.046875 -14.40625 C 4.867188 -13.707031 4.726562 -13.035156 4.625 -12.390625 C 4.507812 -11.742188 4.484375 -11.203125 4.546875 -10.765625 C 4.617188 -10.335938 4.753906 -10.125 4.953125 -10.125 C 5.203125 -10.125 5.90625 -11.210938 7.0625 -13.390625 Z M 7.0625 -13.390625 "/></g></g></g><g fill="#9b3891" fill-opacity="1"><g transform="translate(324.458472, 766.049914)"><g><path d="M 22.640625 -5.171875 C 23.253906 -5.671875 23.785156 -5.878906 24.234375 -5.796875 C 24.679688 -5.710938 24.921875 -5.265625 24.953125 -4.453125 C 24.953125 -4.253906 24.914062 -4.050781 24.84375 -3.84375 C 24.769531 -3.632812 24.65625 -3.429688 24.5 -3.234375 C 24.351562 -3.035156 24.207031 -2.859375 24.0625 -2.703125 C 23.925781 -2.554688 23.738281 -2.390625 23.5 -2.203125 C 23.257812 -2.023438 23.0625 -1.882812 22.90625 -1.78125 C 22.757812 -1.6875 22.554688 -1.554688 22.296875 -1.390625 C 22.046875 -1.222656 21.878906 -1.109375 21.796875 -1.046875 C 21.128906 -0.597656 20.441406 -0.222656 19.734375 0.078125 C 19.285156 0.273438 18.53125 0.546875 17.46875 0.890625 C 16.40625 1.242188 15.046875 1.640625 13.390625 2.078125 C 11.742188 2.515625 10.132812 2.679688 8.5625 2.578125 C 7 2.484375 5.828125 2.046875 5.046875 1.265625 C 4.734375 0.953125 4.378906 0.503906 3.984375 -0.078125 C 3.597656 -0.671875 3.253906 -1.242188 2.953125 -1.796875 C 2.660156 -2.359375 2.445312 -2.820312 2.3125 -3.1875 C 1.945312 -4.164062 1.78125 -5.523438 1.8125 -7.265625 C 2.0625 -12.554688 4.328125 -17.09375 8.609375 -20.875 C 9.617188 -21.71875 10.359375 -22.226562 10.828125 -22.40625 C 11.304688 -22.59375 12.207031 -22.6875 13.53125 -22.6875 C 15.9375 -22.6875 17.773438 -22.148438 19.046875 -21.078125 C 20.316406 -20.015625 20.800781 -18.617188 20.5 -16.890625 C 20.300781 -16.015625 20.109375 -15.472656 19.921875 -15.265625 C 19.742188 -15.054688 19.332031 -14.910156 18.6875 -14.828125 C 17.820312 -14.742188 17.003906 -14.914062 16.234375 -15.34375 C 15.460938 -15.78125 15.160156 -16.253906 15.328125 -16.765625 C 15.492188 -17.179688 15.398438 -17.601562 15.046875 -18.03125 C 14.703125 -18.46875 14.28125 -18.6875 13.78125 -18.6875 C 12.851562 -18.6875 11.441406 -17.710938 9.546875 -15.765625 C 7.660156 -13.828125 6.71875 -12.363281 6.71875 -11.375 C 6.71875 -11.019531 6.519531 -10.488281 6.125 -9.78125 C 5.707031 -9.164062 5.515625 -8.101562 5.546875 -6.59375 C 5.597656 -5.113281 5.835938 -4.0625 6.265625 -3.4375 C 6.929688 -2.4375 8.054688 -1.742188 9.640625 -1.359375 C 11.222656 -0.984375 12.671875 -0.921875 13.984375 -1.171875 C 14.679688 -1.285156 15.4375 -1.507812 16.25 -1.84375 C 17.738281 -2.4375 19.097656 -3.207031 20.328125 -4.15625 C 21.273438 -4.851562 21.929688 -5.117188 22.296875 -4.953125 C 22.328125 -4.953125 22.375 -4.976562 22.4375 -5.03125 C 22.507812 -5.09375 22.578125 -5.140625 22.640625 -5.171875 Z M 22.640625 -5.171875 "/></g></g></g><g fill="#9b3891" fill-opacity="1"><g transform="translate(347.453564, 766.049914)"><g><path d="M 24.5625 -8.0625 C 24.988281 -7.84375 25.203125 -7.351562 25.203125 -6.59375 C 25.222656 -5.726562 24.734375 -4.914062 23.734375 -4.15625 C 23.367188 -3.90625 22.945312 -3.65625 22.46875 -3.40625 C 22.382812 -3.375 22.285156 -3.316406 22.171875 -3.234375 C 21.785156 -3.003906 21.453125 -2.878906 21.171875 -2.859375 C 20.328125 -2.796875 19.515625 -3.128906 18.734375 -3.859375 C 18.535156 -4.023438 18.328125 -4.320312 18.109375 -4.75 L 17.96875 -4.953125 C 17.71875 -5.378906 17.476562 -5.644531 17.25 -5.75 C 17.03125 -5.863281 16.753906 -5.835938 16.421875 -5.671875 C 16.003906 -5.441406 15.53125 -4.753906 15 -3.609375 C 14.738281 -3.023438 14.523438 -2.617188 14.359375 -2.390625 C 13.828125 -1.609375 13.367188 -1.160156 12.984375 -1.046875 C 12.472656 -0.796875 11.785156 -0.40625 10.921875 0.125 C 9.859375 0.769531 8.847656 1.117188 7.890625 1.171875 C 6.804688 1.253906 5.992188 1.367188 5.453125 1.515625 C 5.316406 1.535156 5.179688 1.546875 5.046875 1.546875 C 4.734375 1.546875 4.460938 1.492188 4.234375 1.390625 C 3.898438 1.242188 3.410156 0.863281 2.765625 0.25 C 2.066406 -0.394531 1.59375 -0.960938 1.34375 -1.453125 C 1.09375 -1.941406 0.84375 -2.800781 0.59375 -4.03125 C 0.164062 -6.050781 0.0625 -7.664062 0.28125 -8.875 C 0.507812 -10.09375 1.128906 -11.515625 2.140625 -13.140625 C 3.429688 -15.210938 4.648438 -16.710938 5.796875 -17.640625 C 6.941406 -18.566406 8.351562 -19.222656 10.03125 -19.609375 C 10.84375 -19.773438 11.5625 -20.070312 12.1875 -20.5 C 13.164062 -21.144531 14.03125 -21.378906 14.78125 -21.203125 C 15.507812 -21.066406 16.347656 -20.492188 17.296875 -19.484375 C 17.804688 -18.921875 18.171875 -18.472656 18.390625 -18.140625 C 18.617188 -17.804688 18.773438 -17.484375 18.859375 -17.171875 C 18.941406 -16.867188 18.984375 -16.421875 18.984375 -15.828125 C 18.984375 -13.335938 19.066406 -11.40625 19.234375 -10.03125 C 19.316406 -9.21875 19.503906 -8.59375 19.796875 -8.15625 C 20.097656 -7.726562 20.609375 -7.207031 21.328125 -6.59375 L 21.46875 -6.671875 C 21.96875 -7.015625 22.328125 -7.28125 22.546875 -7.46875 C 23.390625 -8.113281 24.0625 -8.3125 24.5625 -8.0625 Z M 14.875 -15.28125 C 14.875 -16.375 14.757812 -16.976562 14.53125 -17.09375 C 14.476562 -17.039062 14.421875 -16.972656 14.359375 -16.890625 C 14.222656 -16.628906 14.238281 -16.050781 14.40625 -15.15625 C 14.519531 -14.519531 14.628906 -14.113281 14.734375 -13.9375 C 14.828125 -14.164062 14.875 -14.613281 14.875 -15.28125 Z M 13.65625 -8.8125 C 13.757812 -9.457031 13.742188 -9.921875 13.609375 -10.203125 C 13.492188 -10.484375 13.144531 -10.921875 12.5625 -11.515625 C 11.632812 -12.410156 11.171875 -13.148438 11.171875 -13.734375 C 11.171875 -14.128906 11.046875 -14.59375 10.796875 -15.125 C 10.546875 -15.65625 10.289062 -16.003906 10.03125 -16.171875 C 9.84375 -16.304688 9.675781 -16.375 9.53125 -16.375 C 9.414062 -16.375 9.316406 -16.347656 9.234375 -16.296875 C 8.953125 -16.148438 8.378906 -15.628906 7.515625 -14.734375 C 6.765625 -13.984375 6.054688 -13.019531 5.390625 -11.84375 C 4.734375 -10.664062 4.253906 -9.5625 3.953125 -8.53125 C 3.640625 -7.550781 3.582031 -6.835938 3.78125 -6.390625 C 4 -5.960938 4.125 -5.242188 4.15625 -4.234375 C 4.238281 -3.484375 4.351562 -2.925781 4.5 -2.5625 C 4.632812 -2.25 4.84375 -2.039062 5.125 -1.9375 C 5.4375 -1.789062 5.941406 -1.71875 6.640625 -1.71875 C 6.972656 -1.71875 7.25 -1.734375 7.46875 -1.765625 C 7.695312 -1.765625 7.910156 -1.789062 8.109375 -1.84375 C 8.304688 -1.90625 8.488281 -1.976562 8.65625 -2.0625 C 8.851562 -2.164062 9.046875 -2.289062 9.234375 -2.4375 C 9.429688 -2.570312 9.671875 -2.753906 9.953125 -2.984375 C 11.015625 -3.816406 11.617188 -4.488281 11.765625 -5 C 11.929688 -5.53125 12.265625 -6.085938 12.765625 -6.671875 C 13.210938 -7.148438 13.507812 -7.863281 13.65625 -8.8125 Z M 13.65625 -8.8125 "/></g></g></g><g fill="#9b3891" fill-opacity="1"><g transform="translate(370.280657, 766.049914)"><g><path d="M 28.734375 -5.625 C 29.347656 -6.132812 29.882812 -6.34375 30.34375 -6.25 C 30.800781 -6.164062 31.03125 -5.71875 31.03125 -4.90625 C 31.03125 -4.65625 30.972656 -4.40625 30.859375 -4.15625 C 30.753906 -3.90625 30.628906 -3.695312 30.484375 -3.53125 C 30.347656 -3.363281 30.140625 -3.160156 29.859375 -2.921875 C 29.578125 -2.679688 29.359375 -2.503906 29.203125 -2.390625 C 29.054688 -2.273438 28.820312 -2.113281 28.5 -1.90625 C 28.175781 -1.695312 27.972656 -1.566406 27.890625 -1.515625 C 25.898438 -0.140625 24.878906 0.585938 24.828125 0.671875 C 24.648438 0.835938 24.234375 1.019531 23.578125 1.21875 C 22.921875 1.414062 22.410156 1.515625 22.046875 1.515625 C 21.566406 1.648438 21.144531 1.71875 20.78125 1.71875 C 20.425781 1.71875 20.015625 1.65625 19.546875 1.53125 C 19.085938 1.40625 18.753906 1.300781 18.546875 1.21875 C 18.335938 1.132812 18.160156 1.066406 18.015625 1.015625 C 17.265625 0.648438 16.226562 -0.148438 14.90625 -1.390625 L 13.265625 -2.9375 L 11.171875 -1.390625 C 9.710938 -0.410156 8.128906 0.191406 6.421875 0.421875 C 4.992188 0.554688 3.632812 0.398438 2.34375 -0.046875 C 1.0625 -0.492188 0.0507812 -1.269531 -0.6875 -2.375 C -1.4375 -3.476562 -1.65625 -4.800781 -1.34375 -6.34375 C -1.007812 -7.96875 -0.207031 -9.75 1.0625 -11.6875 C 2.34375 -13.632812 3.695312 -15.296875 5.125 -16.671875 C 6.21875 -17.710938 7.085938 -18.234375 7.734375 -18.234375 C 8.035156 -18.234375 8.453125 -17.953125 8.984375 -17.390625 C 9.347656 -16.992188 9.519531 -16.671875 9.5 -16.421875 C 9.488281 -16.171875 9.273438 -15.65625 8.859375 -14.875 C 5.421875 -8.125 4.523438 -4.453125 6.171875 -3.859375 L 6.515625 -3.828125 C 7.660156 -3.648438 9.238281 -4.597656 11.25 -6.671875 C 13.269531 -8.742188 14.671875 -10.847656 15.453125 -12.984375 C 16.046875 -14.410156 16.757812 -15.695312 17.59375 -16.84375 C 18.320312 -17.851562 18.851562 -18.421875 19.1875 -18.546875 C 19.53125 -18.671875 20.160156 -18.492188 21.078125 -18.015625 C 21.867188 -17.597656 22.285156 -17.125 22.328125 -16.59375 C 22.367188 -16.0625 22.082031 -15.207031 21.46875 -14.03125 C 21.15625 -13.550781 20.898438 -13.019531 20.703125 -12.4375 C 20.503906 -11.875 20.351562 -11.367188 20.25 -10.921875 C 20.1875 -10.773438 20.113281 -10.515625 20.03125 -10.140625 C 19.945312 -9.765625 19.863281 -9.453125 19.78125 -9.203125 C 19.613281 -8.492188 19.457031 -7.914062 19.3125 -7.46875 C 19.039062 -6.300781 18.90625 -5.191406 18.90625 -4.140625 C 18.90625 -3.085938 19.070312 -2.394531 19.40625 -2.0625 C 19.6875 -1.78125 20.285156 -1.609375 21.203125 -1.546875 C 21.347656 -1.609375 21.726562 -1.742188 22.34375 -1.953125 C 22.957031 -2.160156 23.378906 -2.320312 23.609375 -2.4375 C 25.765625 -3.550781 27.472656 -4.613281 28.734375 -5.625 Z M 28.734375 -5.625 "/></g></g></g><g fill="#9b3891" fill-opacity="1"><g transform="translate(398.819771, 766.049914)"><g><path d="M 27.671875 -7.46875 C 26.671875 -7.644531 25.816406 -7.882812 25.109375 -8.1875 C 24.835938 -8.300781 24.257812 -8.707031 23.375 -9.40625 C 22.488281 -10.101562 21.863281 -10.484375 21.5 -10.546875 C 21.050781 -10.566406 20.640625 -10.492188 20.265625 -10.328125 C 19.890625 -10.160156 19.5625 -9.929688 19.28125 -9.640625 C 19 -9.347656 18.707031 -8.988281 18.40625 -8.5625 C 18.113281 -8.144531 17.867188 -7.738281 17.671875 -7.34375 C 17.484375 -6.957031 17.269531 -6.539062 17.03125 -6.09375 C 16.789062 -5.644531 16.570312 -5.28125 16.375 -5 C 16.09375 -4.601562 15.46875 -4.066406 14.5 -3.390625 C 13.539062 -2.722656 12.597656 -2.101562 11.671875 -1.53125 C 10.753906 -0.957031 10.265625 -0.644531 10.203125 -0.59375 C 9.835938 -0.3125 9.113281 -0.117188 8.03125 -0.015625 C 6.957031 0.078125 5.875 0.00390625 4.78125 -0.234375 C 3.695312 -0.472656 3 -0.859375 2.6875 -1.390625 C 2.550781 -1.609375 2.429688 -1.988281 2.328125 -2.53125 C 2.234375 -3.082031 2.164062 -3.601562 2.125 -4.09375 C 2.082031 -4.582031 2.03125 -5.160156 1.96875 -5.828125 C 1.914062 -6.503906 1.890625 -6.957031 1.890625 -7.1875 C 1.722656 -8.550781 1.847656 -9.640625 2.265625 -10.453125 C 2.410156 -10.679688 2.585938 -11.519531 2.796875 -12.96875 C 3.003906 -14.425781 3.289062 -16.03125 3.65625 -17.78125 C 4.019531 -19.53125 4.453125 -20.851562 4.953125 -21.75 C 6.097656 -23.6875 7.597656 -23.601562 9.453125 -21.5 C 9.898438 -21 10.066406 -20.09375 9.953125 -18.78125 C 9.867188 -17.457031 9.535156 -16.15625 8.953125 -14.875 C 8.609375 -14.082031 8.1875 -12.90625 7.6875 -11.34375 C 7.15625 -9.800781 6.804688 -8.820312 6.640625 -8.40625 C 6.046875 -6.863281 6.070312 -5.671875 6.71875 -4.828125 C 6.863281 -4.628906 7.128906 -4.570312 7.515625 -4.65625 C 7.910156 -4.738281 8.335938 -4.898438 8.796875 -5.140625 C 9.253906 -5.378906 9.671875 -5.628906 10.046875 -5.890625 C 10.429688 -6.160156 10.707031 -6.394531 10.875 -6.59375 C 11.46875 -7.238281 12.285156 -8.585938 13.328125 -10.640625 C 14.378906 -12.703125 14.988281 -14.164062 15.15625 -15.03125 C 15.382812 -15.957031 15.84375 -16.847656 16.53125 -17.703125 C 17.21875 -18.554688 17.976562 -19.234375 18.8125 -19.734375 C 19.65625 -20.242188 20.523438 -20.410156 21.421875 -20.234375 C 22.316406 -20.066406 23.046875 -19.484375 23.609375 -18.484375 C 23.859375 -18.003906 24.085938 -17.117188 24.296875 -15.828125 C 24.503906 -14.546875 24.890625 -13.582031 25.453125 -12.9375 C 25.984375 -12.320312 26.550781 -11.882812 27.15625 -11.625 C 27.757812 -11.375 28.5 -11.1875 29.375 -11.0625 C 30.257812 -10.9375 30.953125 -10.789062 31.453125 -10.625 C 32.046875 -10.40625 32.515625 -10.015625 32.859375 -9.453125 C 33.210938 -8.890625 33.234375 -8.367188 32.921875 -7.890625 C 32.535156 -7.253906 31.640625 -7.003906 30.234375 -7.140625 C 29.117188 -7.253906 28.265625 -7.363281 27.671875 -7.46875 Z M 27.671875 -7.46875 "/></g></g></g><g fill="#9b3891" fill-opacity="1"><g transform="translate(428.450891, 766.049914)"><g><path d="M 26.875 -6.796875 C 27.46875 -7.335938 27.992188 -7.554688 28.453125 -7.453125 C 28.910156 -7.359375 29.15625 -6.914062 29.1875 -6.125 C 29.1875 -5.90625 29.148438 -5.691406 29.078125 -5.484375 C 29.015625 -5.273438 28.90625 -5.078125 28.75 -4.890625 C 28.59375 -4.710938 28.4375 -4.535156 28.28125 -4.359375 C 28.132812 -4.191406 27.945312 -4.023438 27.71875 -3.859375 C 27.5 -3.691406 27.3125 -3.550781 27.15625 -3.4375 C 27 -3.332031 26.796875 -3.203125 26.546875 -3.046875 C 26.296875 -2.890625 26.128906 -2.769531 26.046875 -2.6875 C 25.367188 -2.238281 24.679688 -1.875 23.984375 -1.59375 C 23.921875 -1.5625 23.835938 -1.519531 23.734375 -1.46875 C 23.671875 -1.332031 23.554688 -1.222656 23.390625 -1.140625 C 23.222656 -1.054688 22.972656 -0.96875 22.640625 -0.875 C 21.992188 -0.519531 21.039062 -0.269531 19.78125 -0.125 C 18.519531 0.0078125 17.367188 0.046875 16.328125 -0.015625 C 15.296875 -0.0859375 14.628906 -0.207031 14.328125 -0.375 C 14.066406 -0.539062 13.78125 -0.890625 13.46875 -1.421875 C 13.164062 -1.953125 12.898438 -2.484375 12.671875 -3.015625 C 12.453125 -3.554688 12.316406 -3.960938 12.265625 -4.234375 C 12.066406 -5.046875 11.992188 -5.914062 12.046875 -6.84375 C 12.140625 -7.800781 12.296875 -9.285156 12.515625 -11.296875 L 12.515625 -11.890625 C 12.515625 -12.023438 12.460938 -12.128906 12.359375 -12.203125 C 12.265625 -12.273438 12.132812 -12.320312 11.96875 -12.34375 C 11.800781 -12.34375 11.578125 -12.34375 11.296875 -12.34375 C 10.960938 -12.34375 10.582031 -12.398438 10.15625 -12.515625 C 9.738281 -12.628906 9.328125 -12.734375 8.921875 -12.828125 C 8.515625 -12.929688 8.160156 -12.984375 7.859375 -12.984375 C 7.878906 -12.984375 7.773438 -12.539062 7.546875 -11.65625 C 7.328125 -10.769531 7.039062 -9.835938 6.6875 -8.859375 C 6.34375 -7.878906 6.03125 -7.304688 5.75 -7.140625 C 4.738281 -6.554688 3.675781 -6.132812 2.5625 -5.875 C 1.101562 -5.539062 1.757812 -8.71875 4.53125 -15.40625 C 4.59375 -15.582031 4.734375 -15.9375 4.953125 -16.46875 C 5.179688 -17 5.335938 -17.367188 5.421875 -17.578125 C 5.503906 -17.785156 5.632812 -18.117188 5.8125 -18.578125 C 6 -19.046875 6.132812 -19.425781 6.21875 -19.71875 C 6.300781 -20.007812 6.390625 -20.363281 6.484375 -20.78125 C 6.585938 -21.207031 6.660156 -21.609375 6.703125 -21.984375 C 6.742188 -22.359375 6.765625 -22.742188 6.765625 -23.140625 C 6.765625 -23.585938 7.050781 -24.382812 7.625 -25.53125 C 8.195312 -26.6875 8.648438 -27.390625 8.984375 -27.640625 C 9.429688 -27.890625 10.039062 -27.976562 10.8125 -27.90625 C 11.582031 -27.832031 12.09375 -27.660156 12.34375 -27.390625 C 12.6875 -26.960938 12.6875 -25.335938 12.34375 -22.515625 C 12.09375 -20.660156 11.984375 -19.46875 12.015625 -18.9375 C 12.035156 -18.382812 12.1875 -17.9375 12.46875 -17.59375 C 12.8125 -17.3125 13.109375 -17.175781 13.359375 -17.1875 C 13.609375 -17.207031 14.082031 -17.425781 14.78125 -17.84375 C 15.820312 -18.4375 16.570312 -18.71875 17.03125 -18.6875 C 17.488281 -18.65625 17.914062 -18.332031 18.3125 -17.71875 C 18.625 -17.269531 18.765625 -16.863281 18.734375 -16.5 C 18.703125 -16.132812 18.492188 -15.4375 18.109375 -14.40625 C 17.546875 -12.925781 17.039062 -11.234375 16.59375 -9.328125 C 16.25 -7.816406 16.140625 -6.695312 16.265625 -5.96875 C 16.398438 -5.238281 16.859375 -4.382812 17.640625 -3.40625 C 17.972656 -2.925781 18.238281 -2.660156 18.4375 -2.609375 C 18.519531 -2.578125 18.664062 -2.59375 18.875 -2.65625 C 19.082031 -2.726562 19.304688 -2.8125 19.546875 -2.90625 C 19.785156 -3.007812 19.945312 -3.078125 20.03125 -3.109375 C 20.894531 -3.328125 21.46875 -3.507812 21.75 -3.65625 C 23.90625 -4.769531 25.613281 -5.816406 26.875 -6.796875 Z M 26.875 -6.796875 "/></g></g></g><g fill="#9b3891" fill-opacity="1"><g transform="translate(454.595992, 766.049914)"><g><path d="M 10.03125 -25.5 C 9.25 -25.300781 8.484375 -25.578125 7.734375 -26.328125 C 7.203125 -26.859375 6.921875 -27.207031 6.890625 -27.375 C 6.859375 -27.550781 7.050781 -27.804688 7.46875 -28.140625 C 8.0625 -28.554688 8.8125 -28.765625 9.71875 -28.765625 C 10.632812 -28.765625 11.257812 -28.554688 11.59375 -28.140625 C 11.957031 -27.660156 11.976562 -27.140625 11.65625 -26.578125 C 11.332031 -26.023438 10.789062 -25.664062 10.03125 -25.5 Z M 17.515625 -5.375 C 17.710938 -5.039062 17.71875 -4.71875 17.53125 -4.40625 C 17.351562 -4.101562 16.84375 -3.597656 16 -2.890625 C 14.6875 -1.773438 13.132812 -0.753906 11.34375 0.171875 C 10 0.835938 8.601562 1.109375 7.15625 0.984375 C 5.71875 0.859375 4.359375 0.445312 3.078125 -0.25 C 1.804688 -0.945312 0.710938 -1.859375 -0.203125 -2.984375 C -1.523438 -4.546875 -1.921875 -6.628906 -1.390625 -9.234375 C -1.328125 -9.429688 -1.210938 -10.101562 -1.046875 -11.25 C -0.878906 -12.40625 -0.703125 -13.421875 -0.515625 -14.296875 C -0.335938 -15.179688 -0.140625 -15.765625 0.078125 -16.046875 C 0.335938 -16.347656 0.753906 -16.554688 1.328125 -16.671875 C 1.898438 -16.785156 2.492188 -16.789062 3.109375 -16.6875 C 3.722656 -16.59375 4.3125 -16.410156 4.875 -16.140625 C 5.4375 -15.878906 5.820312 -15.523438 6.03125 -15.078125 C 6.238281 -14.628906 6.226562 -14.125 6 -13.5625 C 5.363281 -12.21875 5.046875 -11.28125 5.046875 -10.75 C 5.046875 -10.25 4.765625 -9.617188 4.203125 -8.859375 C 3.722656 -8.296875 3.429688 -7.613281 3.328125 -6.8125 C 3.234375 -6.019531 3.367188 -5.5 3.734375 -5.25 C 4.046875 -5.132812 4.203125 -4.785156 4.203125 -4.203125 C 4.203125 -3.691406 4.566406 -3.117188 5.296875 -2.484375 C 5.796875 -2.003906 6.191406 -1.734375 6.484375 -1.671875 C 6.785156 -1.617188 7.328125 -1.691406 8.109375 -1.890625 C 9.253906 -2.304688 10.722656 -3.160156 12.515625 -4.453125 C 13.941406 -5.484375 15.023438 -6.066406 15.765625 -6.203125 C 16.515625 -6.347656 17.097656 -6.070312 17.515625 -5.375 Z M 17.515625 -5.375 "/></g></g></g><g fill="#9b3891" fill-opacity="1"><g transform="translate(468.603055, 766.049914)"><g><path d="M 26.875 -6.796875 C 27.46875 -7.335938 27.992188 -7.554688 28.453125 -7.453125 C 28.910156 -7.359375 29.15625 -6.914062 29.1875 -6.125 C 29.1875 -5.90625 29.148438 -5.691406 29.078125 -5.484375 C 29.015625 -5.273438 28.90625 -5.078125 28.75 -4.890625 C 28.59375 -4.710938 28.4375 -4.535156 28.28125 -4.359375 C 28.132812 -4.191406 27.945312 -4.023438 27.71875 -3.859375 C 27.5 -3.691406 27.3125 -3.550781 27.15625 -3.4375 C 27 -3.332031 26.796875 -3.203125 26.546875 -3.046875 C 26.296875 -2.890625 26.128906 -2.769531 26.046875 -2.6875 C 25.367188 -2.238281 24.679688 -1.875 23.984375 -1.59375 C 23.921875 -1.5625 23.835938 -1.519531 23.734375 -1.46875 C 23.671875 -1.332031 23.554688 -1.222656 23.390625 -1.140625 C 23.222656 -1.054688 22.972656 -0.96875 22.640625 -0.875 C 21.992188 -0.519531 21.039062 -0.269531 19.78125 -0.125 C 18.519531 0.0078125 17.367188 0.046875 16.328125 -0.015625 C 15.296875 -0.0859375 14.628906 -0.207031 14.328125 -0.375 C 14.066406 -0.539062 13.78125 -0.890625 13.46875 -1.421875 C 13.164062 -1.953125 12.898438 -2.484375 12.671875 -3.015625 C 12.453125 -3.554688 12.316406 -3.960938 12.265625 -4.234375 C 12.066406 -5.046875 11.992188 -5.914062 12.046875 -6.84375 C 12.140625 -7.800781 12.296875 -9.285156 12.515625 -11.296875 L 12.515625 -11.890625 C 12.515625 -12.023438 12.460938 -12.128906 12.359375 -12.203125 C 12.265625 -12.273438 12.132812 -12.320312 11.96875 -12.34375 C 11.800781 -12.34375 11.578125 -12.34375 11.296875 -12.34375 C 10.960938 -12.34375 10.582031 -12.398438 10.15625 -12.515625 C 9.738281 -12.628906 9.328125 -12.734375 8.921875 -12.828125 C 8.515625 -12.929688 8.160156 -12.984375 7.859375 -12.984375 C 7.878906 -12.984375 7.773438 -12.539062 7.546875 -11.65625 C 7.328125 -10.769531 7.039062 -9.835938 6.6875 -8.859375 C 6.34375 -7.878906 6.03125 -7.304688 5.75 -7.140625 C 4.738281 -6.554688 3.675781 -6.132812 2.5625 -5.875 C 1.101562 -5.539062 1.757812 -8.71875 4.53125 -15.40625 C 4.59375 -15.582031 4.734375 -15.9375 4.953125 -16.46875 C 5.179688 -17 5.335938 -17.367188 5.421875 -17.578125 C 5.503906 -17.785156 5.632812 -18.117188 5.8125 -18.578125 C 6 -19.046875 6.132812 -19.425781 6.21875 -19.71875 C 6.300781 -20.007812 6.390625 -20.363281 6.484375 -20.78125 C 6.585938 -21.207031 6.660156 -21.609375 6.703125 -21.984375 C 6.742188 -22.359375 6.765625 -22.742188 6.765625 -23.140625 C 6.765625 -23.585938 7.050781 -24.382812 7.625 -25.53125 C 8.195312 -26.6875 8.648438 -27.390625 8.984375 -27.640625 C 9.429688 -27.890625 10.039062 -27.976562 10.8125 -27.90625 C 11.582031 -27.832031 12.09375 -27.660156 12.34375 -27.390625 C 12.6875 -26.960938 12.6875 -25.335938 12.34375 -22.515625 C 12.09375 -20.660156 11.984375 -19.46875 12.015625 -18.9375 C 12.035156 -18.382812 12.1875 -17.9375 12.46875 -17.59375 C 12.8125 -17.3125 13.109375 -17.175781 13.359375 -17.1875 C 13.609375 -17.207031 14.082031 -17.425781 14.78125 -17.84375 C 15.820312 -18.4375 16.570312 -18.71875 17.03125 -18.6875 C 17.488281 -18.65625 17.914062 -18.332031 18.3125 -17.71875 C 18.625 -17.269531 18.765625 -16.863281 18.734375 -16.5 C 18.703125 -16.132812 18.492188 -15.4375 18.109375 -14.40625 C 17.546875 -12.925781 17.039062 -11.234375 16.59375 -9.328125 C 16.25 -7.816406 16.140625 -6.695312 16.265625 -5.96875 C 16.398438 -5.238281 16.859375 -4.382812 17.640625 -3.40625 C 17.972656 -2.925781 18.238281 -2.660156 18.4375 -2.609375 C 18.519531 -2.578125 18.664062 -2.59375 18.875 -2.65625 C 19.082031 -2.726562 19.304688 -2.8125 19.546875 -2.90625 C 19.785156 -3.007812 19.945312 -3.078125 20.03125 -3.109375 C 20.894531 -3.328125 21.46875 -3.507812 21.75 -3.65625 C 23.90625 -4.769531 25.613281 -5.816406 26.875 -6.796875 Z M 26.875 -6.796875 "/></g></g></g><g fill="#9b3891" fill-opacity="1"><g transform="translate(494.748157, 766.049914)"><g/></g></g><g fill="#9b3891" fill-opacity="1"><g transform="translate(513.921243, 766.049914)"><g><path d="M 6.84375 -14.109375 C 5.914062 -12.992188 5.117188 -11.945312 4.453125 -10.96875 C 3.773438 -9.976562 3.46875 -9.359375 3.53125 -9.109375 C 3.53125 -8.660156 3.921875 -7.640625 4.703125 -6.046875 C 5.648438 -4.222656 6.753906 -3.3125 8.015625 -3.3125 C 8.273438 -3.3125 8.535156 -3.335938 8.796875 -3.390625 C 9.066406 -3.453125 9.40625 -3.550781 9.8125 -3.6875 C 10.21875 -3.832031 10.472656 -3.921875 10.578125 -3.953125 C 10.890625 -4.035156 11.394531 -4.285156 12.09375 -4.703125 C 12.957031 -5.234375 13.785156 -5.804688 14.578125 -6.421875 C 15.191406 -6.953125 15.726562 -7.171875 16.1875 -7.078125 C 16.65625 -6.984375 16.898438 -6.539062 16.921875 -5.75 C 16.921875 -5.5 16.859375 -5.25 16.734375 -5 C 16.609375 -4.75 16.472656 -4.53125 16.328125 -4.34375 C 16.191406 -4.164062 15.988281 -3.957031 15.71875 -3.71875 C 15.457031 -3.476562 15.242188 -3.300781 15.078125 -3.1875 C 14.910156 -3.082031 14.671875 -2.921875 14.359375 -2.703125 C 14.054688 -2.492188 13.863281 -2.363281 13.78125 -2.3125 C 13.550781 -2.164062 13.210938 -1.953125 12.765625 -1.671875 C 12.316406 -1.398438 11.984375 -1.191406 11.765625 -1.046875 C 10.804688 -0.398438 9.835938 -0.0234375 8.859375 0.078125 C 7.910156 0.222656 7.195312 0.234375 6.71875 0.109375 C 6.238281 -0.015625 5.539062 -0.390625 4.625 -1.015625 C 3.445312 -1.816406 2.492188 -2.691406 1.765625 -3.640625 C 1.035156 -4.597656 0.546875 -5.507812 0.296875 -6.375 C 0.046875 -7.25 -0.078125 -8.257812 -0.078125 -9.40625 C -0.078125 -10.550781 -0.0078125 -11.578125 0.125 -12.484375 C 0.269531 -13.398438 0.445312 -14.519531 0.65625 -15.84375 C 0.863281 -17.175781 0.984375 -18.320312 1.015625 -19.28125 C 1.035156 -19.644531 1.066406 -20.019531 1.109375 -20.40625 C 1.148438 -20.800781 1.191406 -21.160156 1.234375 -21.484375 C 1.273438 -21.804688 1.335938 -22.191406 1.421875 -22.640625 C 1.503906 -23.085938 1.566406 -23.4375 1.609375 -23.6875 C 1.660156 -23.9375 1.753906 -24.304688 1.890625 -24.796875 C 2.023438 -25.285156 2.113281 -25.628906 2.15625 -25.828125 C 2.195312 -26.023438 2.296875 -26.394531 2.453125 -26.9375 C 2.609375 -27.488281 2.707031 -27.832031 2.75 -27.96875 C 2.789062 -28.113281 2.898438 -28.484375 3.078125 -29.078125 C 3.265625 -29.679688 3.375 -30.039062 3.40625 -30.15625 C 3.707031 -31.1875 3.972656 -31.941406 4.203125 -32.421875 C 4.453125 -32.929688 4.789062 -33.429688 5.21875 -33.921875 C 5.65625 -34.410156 6.050781 -34.804688 6.40625 -35.109375 C 6.757812 -35.421875 7.226562 -35.8125 7.8125 -36.28125 C 8.03125 -36.457031 8.410156 -36.769531 8.953125 -37.21875 C 9.503906 -37.664062 9.90625 -37.976562 10.15625 -38.15625 C 10.414062 -38.34375 10.757812 -38.59375 11.1875 -38.90625 C 11.625 -39.226562 12.046875 -39.507812 12.453125 -39.75 C 12.859375 -39.988281 13.300781 -40.222656 13.78125 -40.453125 C 14.84375 -40.984375 15.664062 -41.175781 16.25 -41.03125 C 16.695312 -40.914062 17.070312 -40.671875 17.375 -40.296875 C 17.6875 -39.921875 17.898438 -39.492188 18.015625 -39.015625 C 18.097656 -38.679688 18.160156 -38.335938 18.203125 -37.984375 C 18.242188 -37.640625 18.25 -37.265625 18.21875 -36.859375 C 18.195312 -36.453125 18.175781 -36.109375 18.15625 -35.828125 C 18.144531 -35.546875 18.082031 -35.164062 17.96875 -34.6875 C 17.863281 -34.21875 17.789062 -33.875 17.75 -33.65625 C 17.707031 -33.445312 17.59375 -33.082031 17.40625 -32.5625 C 17.226562 -32.050781 17.117188 -31.722656 17.078125 -31.578125 C 17.035156 -31.441406 16.90625 -31.085938 16.6875 -30.515625 C 16.476562 -29.941406 16.363281 -29.613281 16.34375 -29.53125 C 15.632812 -27.65625 15.070312 -26.421875 14.65625 -25.828125 C 14.375 -25.429688 13.5625 -23.960938 12.21875 -21.421875 C 10.84375 -18.867188 9.890625 -17.34375 9.359375 -16.84375 C 8.609375 -16.144531 7.769531 -15.234375 6.84375 -14.109375 Z M 6.296875 -24.3125 C 5.992188 -24.03125 5.640625 -23.078125 5.234375 -21.453125 C 4.828125 -19.835938 4.75 -18.898438 5 -18.640625 C 5.132812 -18.535156 5.363281 -18.65625 5.6875 -19 C 6.007812 -19.351562 6.398438 -19.898438 6.859375 -20.640625 C 7.328125 -21.378906 7.785156 -22.269531 8.234375 -23.3125 C 9.160156 -25.15625 9.625 -26.160156 9.625 -26.328125 C 9.625 -26.410156 10.054688 -27.363281 10.921875 -29.1875 C 11.785156 -30.976562 12.21875 -32.070312 12.21875 -32.46875 C 12.21875 -33.28125 11.851562 -33.363281 11.125 -32.71875 C 10.65625 -32.351562 10.195312 -31.78125 9.75 -31 C 9.039062 -29.707031 8.378906 -28.671875 7.765625 -27.890625 C 7.210938 -27.160156 6.9375 -26.472656 6.9375 -25.828125 C 6.9375 -25.210938 6.722656 -24.707031 6.296875 -24.3125 Z M 6.296875 -24.3125 "/></g></g></g><g fill="#9b3891" fill-opacity="1"><g transform="translate(528.180305, 766.049914)"><g><path d="M 19.734375 -4.703125 C 20.347656 -5.203125 20.882812 -5.40625 21.34375 -5.3125 C 21.8125 -5.21875 22.046875 -4.773438 22.046875 -3.984375 C 22.078125 -3.734375 22.03125 -3.484375 21.90625 -3.234375 C 21.78125 -2.984375 21.644531 -2.765625 21.5 -2.578125 C 21.363281 -2.398438 21.160156 -2.195312 20.890625 -1.96875 C 20.628906 -1.75 20.410156 -1.582031 20.234375 -1.46875 C 20.066406 -1.351562 19.820312 -1.191406 19.5 -0.984375 C 19.1875 -0.773438 19 -0.644531 18.9375 -0.59375 C 18.269531 -0.144531 17.585938 0.234375 16.890625 0.546875 C 16.828125 0.578125 16.742188 0.613281 16.640625 0.65625 C 16.546875 0.695312 16.441406 0.738281 16.328125 0.78125 C 16.222656 0.820312 16.113281 0.863281 16 0.90625 C 15.882812 0.945312 15.796875 0.984375 15.734375 1.015625 L 15.625 1.046875 C 13.914062 1.742188 12.082031 2.148438 10.125 2.265625 C 8.101562 2.378906 6.632812 2.195312 5.71875 1.71875 C 5.601562 1.664062 5.148438 1.46875 4.359375 1.125 C 3.578125 0.789062 3.019531 0.5 2.6875 0.25 C 2.039062 -0.164062 1.425781 -1.078125 0.84375 -2.484375 C -0.25 -5.003906 -0.796875 -7.226562 -0.796875 -9.15625 C -0.796875 -10.332031 -0.585938 -11.875 -0.171875 -13.78125 C -0.140625 -13.882812 -0.0859375 -14.117188 -0.015625 -14.484375 C 0.046875 -14.847656 0.101562 -15.117188 0.15625 -15.296875 C 0.21875 -15.484375 0.289062 -15.738281 0.375 -16.0625 C 0.457031 -16.382812 0.539062 -16.65625 0.625 -16.875 C 0.707031 -17.101562 0.804688 -17.335938 0.921875 -17.578125 C 1.035156 -17.816406 1.148438 -18.035156 1.265625 -18.234375 C 1.847656 -19.046875 2.320312 -19.628906 2.6875 -19.984375 C 4.195312 -21.554688 6.113281 -22.257812 8.4375 -22.09375 C 10.84375 -21.894531 12.144531 -21.097656 12.34375 -19.703125 C 12.507812 -18.609375 12.445312 -17.476562 12.15625 -16.3125 C 11.863281 -15.15625 11.5 -14.195312 11.0625 -13.4375 C 10.632812 -12.6875 10.035156 -11.707031 9.265625 -10.5 C 8.492188 -9.289062 7.941406 -8.367188 7.609375 -7.734375 C 6.367188 -5.398438 5.75 -4.007812 5.75 -3.5625 C 5.75 -3.207031 6.097656 -2.691406 6.796875 -2.015625 C 7.242188 -1.597656 7.644531 -1.347656 8 -1.265625 C 8.351562 -1.179688 8.988281 -1.222656 9.90625 -1.390625 C 11.363281 -1.585938 12.945312 -1.9375 14.65625 -2.4375 C 15.300781 -2.65625 16.238281 -3.03125 17.46875 -3.5625 C 18.695312 -4.101562 19.453125 -4.484375 19.734375 -4.703125 Z M 3.4375 -7.6875 C 3.695312 -7.6875 4.398438 -8.78125 5.546875 -10.96875 C 6.660156 -13.144531 7.21875 -14.457031 7.21875 -14.90625 C 7.21875 -15.4375 6.929688 -15.78125 6.359375 -15.9375 C 5.785156 -16.09375 5.332031 -15.960938 5 -15.546875 C 4.71875 -15.203125 4.4375 -14.695312 4.15625 -14.03125 C 3.875 -13.351562 3.648438 -12.664062 3.484375 -11.96875 C 3.347656 -11.269531 3.222656 -10.597656 3.109375 -9.953125 C 2.992188 -9.304688 2.960938 -8.765625 3.015625 -8.328125 C 3.078125 -7.898438 3.21875 -7.6875 3.4375 -7.6875 Z M 3.4375 -7.6875 "/></g></g></g><g fill="#9b3891" fill-opacity="1"><g transform="translate(286.159666, 824.549908)"><g><path d="M 24.234375 -6.09375 C 24.847656 -6.59375 25.382812 -6.789062 25.84375 -6.6875 C 26.3125 -6.59375 26.546875 -6.15625 26.546875 -5.375 C 26.546875 -5.125 26.488281 -4.867188 26.375 -4.609375 C 26.257812 -4.359375 26.128906 -4.144531 25.984375 -3.96875 C 25.847656 -3.789062 25.640625 -3.582031 25.359375 -3.34375 C 25.085938 -3.101562 24.875 -2.925781 24.71875 -2.8125 C 24.5625 -2.695312 24.320312 -2.535156 24 -2.328125 C 23.675781 -2.117188 23.472656 -1.988281 23.390625 -1.9375 C 22.742188 -1.488281 22.054688 -1.125 21.328125 -0.84375 C 20.796875 -0.59375 19.820312 -0.328125 18.40625 -0.046875 C 17 0.234375 15.890625 0.375 15.078125 0.375 C 14.398438 0.375 13.457031 0.144531 12.25 -0.3125 C 11.050781 -0.78125 10.023438 -1.207031 9.171875 -1.59375 C 8.316406 -1.988281 7.890625 -2.144531 7.890625 -2.0625 C 7.890625 -2.0625 7.796875 -2.0625 7.609375 -2.0625 C 7.410156 -2.0625 7.191406 -2.070312 6.953125 -2.09375 C 6.710938 -2.125 6.367188 -1.992188 5.921875 -1.703125 C 5.472656 -1.410156 5.007812 -0.957031 4.53125 -0.34375 C 3.832031 0.53125 3.203125 1.710938 2.640625 3.203125 C 2.085938 4.703125 1.695312 5.648438 1.46875 6.046875 C 1.1875 6.609375 0.898438 7.253906 0.609375 7.984375 C 0.316406 8.710938 0.03125 9.328125 -0.25 9.828125 C -0.53125 10.328125 -0.910156 10.859375 -1.390625 11.421875 C -1.804688 11.929688 -2.132812 12.238281 -2.375 12.34375 C -2.613281 12.457031 -3.007812 12.40625 -3.5625 12.1875 C -4.238281 11.925781 -4.722656 11.269531 -5.015625 10.21875 C -5.304688 9.175781 -5.359375 8.257812 -5.171875 7.46875 C -5.054688 7 -4.722656 6.363281 -4.171875 5.5625 C -3.628906 4.769531 -3.289062 4.191406 -3.15625 3.828125 C -2.976562 3.378906 -2.789062 2.707031 -2.59375 1.8125 C -2.40625 0.914062 -2.238281 0.285156 -2.09375 -0.078125 C -1.90625 -0.671875 -1.539062 -1.503906 -1 -2.578125 C -0.46875 -3.660156 -0.109375 -4.46875 0.078125 -5 C 0.359375 -5.78125 0.5625 -6.742188 0.6875 -7.890625 C 0.8125 -9.046875 0.960938 -10.140625 1.140625 -11.171875 C 1.328125 -12.203125 1.660156 -13.125 2.140625 -13.9375 C 2.191406 -14.050781 2.273438 -14.210938 2.390625 -14.421875 C 2.503906 -14.628906 2.609375 -14.820312 2.703125 -15 C 2.804688 -15.1875 2.925781 -15.398438 3.0625 -15.640625 C 3.207031 -15.878906 3.34375 -16.085938 3.46875 -16.265625 C 3.59375 -16.453125 3.726562 -16.65625 3.875 -16.875 C 4.03125 -17.101562 4.1875 -17.300781 4.34375 -17.46875 C 4.5 -17.632812 4.660156 -17.796875 4.828125 -17.953125 C 4.992188 -18.109375 5.164062 -18.238281 5.34375 -18.34375 C 5.53125 -18.457031 5.707031 -18.546875 5.875 -18.609375 C 6.882812 -18.890625 7.613281 -18.695312 8.0625 -18.03125 C 8.507812 -17.375 8.484375 -16.640625 7.984375 -15.828125 C 7.253906 -14.628906 7.097656 -14.070312 7.515625 -14.15625 C 7.929688 -14.289062 8.617188 -14.835938 9.578125 -15.796875 C 10.691406 -16.910156 11.738281 -17.757812 12.71875 -18.34375 C 13.707031 -18.9375 14.84375 -19.347656 16.125 -19.578125 C 17.351562 -19.796875 18 -19.945312 18.0625 -20.03125 C 18.175781 -20.0625 18.285156 -19.992188 18.390625 -19.828125 C 18.503906 -19.660156 18.617188 -19.421875 18.734375 -19.109375 C 18.816406 -18.796875 18.898438 -18.445312 18.984375 -18.0625 C 19.035156 -17.644531 19.09375 -17.222656 19.15625 -16.796875 C 19.207031 -16.378906 19.234375 -15.972656 19.234375 -15.578125 C 19.203125 -11.691406 18.644531 -9.160156 17.5625 -7.984375 C 16.882812 -7.285156 16.363281 -6.613281 16 -5.96875 C 15.882812 -5.71875 15.75 -5.546875 15.59375 -5.453125 C 15.445312 -5.367188 15.320312 -5.332031 15.21875 -5.34375 C 15.125 -5.363281 14.976562 -5.34375 14.78125 -5.28125 C 14.582031 -5.226562 14.414062 -5.09375 14.28125 -4.875 C 13.882812 -4.445312 13.460938 -4.234375 13.015625 -4.234375 C 12.648438 -4.210938 12.179688 -4.023438 11.609375 -3.671875 C 11.035156 -3.328125 10.75 -3.039062 10.75 -2.8125 C 10.75 -2.726562 10.894531 -2.613281 11.1875 -2.46875 C 11.488281 -2.332031 11.847656 -2.203125 12.265625 -2.078125 C 12.679688 -1.953125 13.113281 -1.847656 13.5625 -1.765625 C 14.007812 -1.679688 14.390625 -1.640625 14.703125 -1.640625 C 15.171875 -1.640625 15.742188 -1.707031 16.421875 -1.84375 C 16.671875 -1.957031 16.976562 -2.078125 17.34375 -2.203125 C 17.707031 -2.328125 18.039062 -2.445312 18.34375 -2.5625 C 18.65625 -2.675781 18.910156 -2.785156 19.109375 -2.890625 C 21.265625 -4.015625 22.972656 -5.082031 24.234375 -6.09375 Z M 7.640625 -7.859375 C 7.703125 -7.328125 7.925781 -6.816406 8.3125 -6.328125 C 8.707031 -5.835938 9.085938 -5.59375 9.453125 -5.59375 C 10.097656 -5.59375 11.09375 -6.171875 12.4375 -7.328125 C 13.78125 -8.492188 14.617188 -9.46875 14.953125 -10.25 C 15.316406 -11.144531 15.519531 -12.125 15.5625 -13.1875 C 15.601562 -14.25 15.457031 -15.085938 15.125 -15.703125 C 14.78125 -16.296875 14.445312 -16.539062 14.125 -16.4375 C 13.8125 -16.34375 13.09375 -15.75 11.96875 -14.65625 C 10.90625 -13.707031 9.914062 -12.503906 9 -11.046875 C 8.09375 -9.585938 7.640625 -8.523438 7.640625 -7.859375 Z M 7.640625 -7.859375 "/></g></g></g><g fill="#9b3891" fill-opacity="1"><g transform="translate(309.322758, 824.549908)"><g><path d="M 26.875 -6.796875 C 27.46875 -7.335938 27.992188 -7.554688 28.453125 -7.453125 C 28.910156 -7.359375 29.15625 -6.914062 29.1875 -6.125 C 29.1875 -5.90625 29.148438 -5.691406 29.078125 -5.484375 C 29.015625 -5.273438 28.90625 -5.078125 28.75 -4.890625 C 28.59375 -4.710938 28.4375 -4.535156 28.28125 -4.359375 C 28.132812 -4.191406 27.945312 -4.023438 27.71875 -3.859375 C 27.5 -3.691406 27.3125 -3.550781 27.15625 -3.4375 C 27 -3.332031 26.796875 -3.203125 26.546875 -3.046875 C 26.296875 -2.890625 26.128906 -2.769531 26.046875 -2.6875 C 25.367188 -2.238281 24.679688 -1.875 23.984375 -1.59375 C 23.921875 -1.5625 23.835938 -1.519531 23.734375 -1.46875 C 23.671875 -1.332031 23.554688 -1.222656 23.390625 -1.140625 C 23.222656 -1.054688 22.972656 -0.96875 22.640625 -0.875 C 21.992188 -0.519531 21.039062 -0.269531 19.78125 -0.125 C 18.519531 0.0078125 17.367188 0.046875 16.328125 -0.015625 C 15.296875 -0.0859375 14.628906 -0.207031 14.328125 -0.375 C 14.066406 -0.539062 13.78125 -0.890625 13.46875 -1.421875 C 13.164062 -1.953125 12.898438 -2.484375 12.671875 -3.015625 C 12.453125 -3.554688 12.316406 -3.960938 12.265625 -4.234375 C 12.066406 -5.046875 11.992188 -5.914062 12.046875 -6.84375 C 12.140625 -7.800781 12.296875 -9.285156 12.515625 -11.296875 L 12.515625 -11.890625 C 12.515625 -12.023438 12.460938 -12.128906 12.359375 -12.203125 C 12.265625 -12.273438 12.132812 -12.320312 11.96875 -12.34375 C 11.800781 -12.34375 11.578125 -12.34375 11.296875 -12.34375 C 10.960938 -12.34375 10.582031 -12.398438 10.15625 -12.515625 C 9.738281 -12.628906 9.328125 -12.734375 8.921875 -12.828125 C 8.515625 -12.929688 8.160156 -12.984375 7.859375 -12.984375 C 7.878906 -12.984375 7.773438 -12.539062 7.546875 -11.65625 C 7.328125 -10.769531 7.039062 -9.835938 6.6875 -8.859375 C 6.34375 -7.878906 6.03125 -7.304688 5.75 -7.140625 C 4.738281 -6.554688 3.675781 -6.132812 2.5625 -5.875 C 1.101562 -5.539062 1.757812 -8.71875 4.53125 -15.40625 C 4.59375 -15.582031 4.734375 -15.9375 4.953125 -16.46875 C 5.179688 -17 5.335938 -17.367188 5.421875 -17.578125 C 5.503906 -17.785156 5.632812 -18.117188 5.8125 -18.578125 C 6 -19.046875 6.132812 -19.425781 6.21875 -19.71875 C 6.300781 -20.007812 6.390625 -20.363281 6.484375 -20.78125 C 6.585938 -21.207031 6.660156 -21.609375 6.703125 -21.984375 C 6.742188 -22.359375 6.765625 -22.742188 6.765625 -23.140625 C 6.765625 -23.585938 7.050781 -24.382812 7.625 -25.53125 C 8.195312 -26.6875 8.648438 -27.390625 8.984375 -27.640625 C 9.429688 -27.890625 10.039062 -27.976562 10.8125 -27.90625 C 11.582031 -27.832031 12.09375 -27.660156 12.34375 -27.390625 C 12.6875 -26.960938 12.6875 -25.335938 12.34375 -22.515625 C 12.09375 -20.660156 11.984375 -19.46875 12.015625 -18.9375 C 12.035156 -18.382812 12.1875 -17.9375 12.46875 -17.59375 C 12.8125 -17.3125 13.109375 -17.175781 13.359375 -17.1875 C 13.609375 -17.207031 14.082031 -17.425781 14.78125 -17.84375 C 15.820312 -18.4375 16.570312 -18.71875 17.03125 -18.6875 C 17.488281 -18.65625 17.914062 -18.332031 18.3125 -17.71875 C 18.625 -17.269531 18.765625 -16.863281 18.734375 -16.5 C 18.703125 -16.132812 18.492188 -15.4375 18.109375 -14.40625 C 17.546875 -12.925781 17.039062 -11.234375 16.59375 -9.328125 C 16.25 -7.816406 16.140625 -6.695312 16.265625 -5.96875 C 16.398438 -5.238281 16.859375 -4.382812 17.640625 -3.40625 C 17.972656 -2.925781 18.238281 -2.660156 18.4375 -2.609375 C 18.519531 -2.578125 18.664062 -2.59375 18.875 -2.65625 C 19.082031 -2.726562 19.304688 -2.8125 19.546875 -2.90625 C 19.785156 -3.007812 19.945312 -3.078125 20.03125 -3.109375 C 20.894531 -3.328125 21.46875 -3.507812 21.75 -3.65625 C 23.90625 -4.769531 25.613281 -5.816406 26.875 -6.796875 Z M 26.875 -6.796875 "/></g></g></g><g fill="#9b3891" fill-opacity="1"><g transform="translate(335.467859, 824.549908)"><g><path d="M 24.5625 -8.0625 C 24.988281 -7.84375 25.203125 -7.351562 25.203125 -6.59375 C 25.222656 -5.726562 24.734375 -4.914062 23.734375 -4.15625 C 23.367188 -3.90625 22.945312 -3.65625 22.46875 -3.40625 C 22.382812 -3.375 22.285156 -3.316406 22.171875 -3.234375 C 21.785156 -3.003906 21.453125 -2.878906 21.171875 -2.859375 C 20.328125 -2.796875 19.515625 -3.128906 18.734375 -3.859375 C 18.535156 -4.023438 18.328125 -4.320312 18.109375 -4.75 L 17.96875 -4.953125 C 17.71875 -5.378906 17.476562 -5.644531 17.25 -5.75 C 17.03125 -5.863281 16.753906 -5.835938 16.421875 -5.671875 C 16.003906 -5.441406 15.53125 -4.753906 15 -3.609375 C 14.738281 -3.023438 14.523438 -2.617188 14.359375 -2.390625 C 13.828125 -1.609375 13.367188 -1.160156 12.984375 -1.046875 C 12.472656 -0.796875 11.785156 -0.40625 10.921875 0.125 C 9.859375 0.769531 8.847656 1.117188 7.890625 1.171875 C 6.804688 1.253906 5.992188 1.367188 5.453125 1.515625 C 5.316406 1.535156 5.179688 1.546875 5.046875 1.546875 C 4.734375 1.546875 4.460938 1.492188 4.234375 1.390625 C 3.898438 1.242188 3.410156 0.863281 2.765625 0.25 C 2.066406 -0.394531 1.59375 -0.960938 1.34375 -1.453125 C 1.09375 -1.941406 0.84375 -2.800781 0.59375 -4.03125 C 0.164062 -6.050781 0.0625 -7.664062 0.28125 -8.875 C 0.507812 -10.09375 1.128906 -11.515625 2.140625 -13.140625 C 3.429688 -15.210938 4.648438 -16.710938 5.796875 -17.640625 C 6.941406 -18.566406 8.351562 -19.222656 10.03125 -19.609375 C 10.84375 -19.773438 11.5625 -20.070312 12.1875 -20.5 C 13.164062 -21.144531 14.03125 -21.378906 14.78125 -21.203125 C 15.507812 -21.066406 16.347656 -20.492188 17.296875 -19.484375 C 17.804688 -18.921875 18.171875 -18.472656 18.390625 -18.140625 C 18.617188 -17.804688 18.773438 -17.484375 18.859375 -17.171875 C 18.941406 -16.867188 18.984375 -16.421875 18.984375 -15.828125 C 18.984375 -13.335938 19.066406 -11.40625 19.234375 -10.03125 C 19.316406 -9.21875 19.503906 -8.59375 19.796875 -8.15625 C 20.097656 -7.726562 20.609375 -7.207031 21.328125 -6.59375 L 21.46875 -6.671875 C 21.96875 -7.015625 22.328125 -7.28125 22.546875 -7.46875 C 23.390625 -8.113281 24.0625 -8.3125 24.5625 -8.0625 Z M 14.875 -15.28125 C 14.875 -16.375 14.757812 -16.976562 14.53125 -17.09375 C 14.476562 -17.039062 14.421875 -16.972656 14.359375 -16.890625 C 14.222656 -16.628906 14.238281 -16.050781 14.40625 -15.15625 C 14.519531 -14.519531 14.628906 -14.113281 14.734375 -13.9375 C 14.828125 -14.164062 14.875 -14.613281 14.875 -15.28125 Z M 13.65625 -8.8125 C 13.757812 -9.457031 13.742188 -9.921875 13.609375 -10.203125 C 13.492188 -10.484375 13.144531 -10.921875 12.5625 -11.515625 C 11.632812 -12.410156 11.171875 -13.148438 11.171875 -13.734375 C 11.171875 -14.128906 11.046875 -14.59375 10.796875 -15.125 C 10.546875 -15.65625 10.289062 -16.003906 10.03125 -16.171875 C 9.84375 -16.304688 9.675781 -16.375 9.53125 -16.375 C 9.414062 -16.375 9.316406 -16.347656 9.234375 -16.296875 C 8.953125 -16.148438 8.378906 -15.628906 7.515625 -14.734375 C 6.765625 -13.984375 6.054688 -13.019531 5.390625 -11.84375 C 4.734375 -10.664062 4.253906 -9.5625 3.953125 -8.53125 C 3.640625 -7.550781 3.582031 -6.835938 3.78125 -6.390625 C 4 -5.960938 4.125 -5.242188 4.15625 -4.234375 C 4.238281 -3.484375 4.351562 -2.925781 4.5 -2.5625 C 4.632812 -2.25 4.84375 -2.039062 5.125 -1.9375 C 5.4375 -1.789062 5.941406 -1.71875 6.640625 -1.71875 C 6.972656 -1.71875 7.25 -1.734375 7.46875 -1.765625 C 7.695312 -1.765625 7.910156 -1.789062 8.109375 -1.84375 C 8.304688 -1.90625 8.488281 -1.976562 8.65625 -2.0625 C 8.851562 -2.164062 9.046875 -2.289062 9.234375 -2.4375 C 9.429688 -2.570312 9.671875 -2.753906 9.953125 -2.984375 C 11.015625 -3.816406 11.617188 -4.488281 11.765625 -5 C 11.929688 -5.53125 12.265625 -6.085938 12.765625 -6.671875 C 13.210938 -7.148438 13.507812 -7.863281 13.65625 -8.8125 Z M 13.65625 -8.8125 "/></g></g></g><g fill="#9b3891" fill-opacity="1"><g transform="translate(358.294952, 824.549908)"><g><path d="M 20.5 -5.453125 C 21.113281 -5.992188 21.648438 -6.210938 22.109375 -6.109375 C 22.578125 -6.015625 22.8125 -5.5625 22.8125 -4.75 C 22.8125 -4.519531 22.753906 -4.28125 22.640625 -4.03125 C 22.523438 -3.78125 22.394531 -3.5625 22.25 -3.375 C 22.113281 -3.195312 21.90625 -2.988281 21.625 -2.75 C 21.34375 -2.507812 21.125 -2.332031 20.96875 -2.21875 C 20.820312 -2.113281 20.585938 -1.953125 20.265625 -1.734375 C 19.941406 -1.523438 19.753906 -1.394531 19.703125 -1.34375 C 19.023438 -0.894531 18.320312 -0.53125 17.59375 -0.25 C 17.507812 -0.195312 17.1875 -0.0195312 16.625 0.28125 C 16.070312 0.59375 15.472656 0.90625 14.828125 1.21875 C 14.179688 1.53125 13.609375 1.769531 13.109375 1.9375 C 12.492188 2.382812 11.691406 2.875 10.703125 3.40625 C 9.253906 4.21875 8.289062 5.171875 7.8125 6.265625 C 7.675781 6.535156 7.476562 6.894531 7.21875 7.34375 C 7 7.769531 6.734375 8.207031 6.421875 8.65625 C 6.140625 9.070312 5.816406 9.53125 5.453125 10.03125 C 5.085938 10.570312 4.769531 11.050781 4.5 11.46875 C 4.21875 11.882812 3.921875 12.289062 3.609375 12.6875 C 3.304688 13.101562 3.082031 13.410156 2.9375 13.609375 C 2.738281 13.941406 2.113281 14.4375 1.0625 15.09375 C 0.0195312 15.75 -1.03125 16.359375 -2.09375 16.921875 C -4.363281 18.046875 -5.796875 17.65625 -6.390625 15.75 C -6.640625 14.9375 -6.765625 14.320312 -6.765625 13.90625 C -6.765625 13.675781 -6.710938 13.441406 -6.609375 13.203125 C -6.515625 12.972656 -6.410156 12.757812 -6.296875 12.5625 C -6.179688 12.363281 -6.019531 12.148438 -5.8125 11.921875 C -5.601562 11.703125 -5.421875 11.519531 -5.265625 11.375 C -5.117188 11.238281 -4.925781 11.054688 -4.6875 10.828125 C -4.445312 10.609375 -4.269531 10.457031 -4.15625 10.375 C -3.09375 9.332031 -1.664062 8.335938 0.125 7.390625 C 0.625 7.109375 1.367188 6.644531 2.359375 6 C 3.640625 5.164062 4.394531 4.691406 4.625 4.578125 C 5.238281 4.242188 6.003906 3.375 6.921875 1.96875 C 7.847656 0.570312 8.203125 -0.238281 7.984375 -0.46875 C 7.816406 -0.601562 7.085938 -0.460938 5.796875 -0.046875 C 2.347656 1.128906 0.148438 -0.113281 -0.796875 -3.78125 C -1.078125 -4.789062 -0.976562 -6.132812 -0.5 -7.8125 C -0.03125 -9.488281 0.648438 -10.988281 1.546875 -12.3125 C 2.085938 -13.0625 2.65625 -13.785156 3.25 -14.484375 C 3.851562 -15.191406 4.550781 -15.882812 5.34375 -16.5625 C 6.144531 -17.25 6.957031 -17.835938 7.78125 -18.328125 C 8.613281 -18.816406 9.503906 -19.171875 10.453125 -19.390625 C 11.410156 -19.617188 12.320312 -19.648438 13.1875 -19.484375 C 14.195312 -19.316406 14.953125 -18.925781 15.453125 -18.3125 C 15.960938 -17.695312 16.222656 -16.992188 16.234375 -16.203125 C 16.242188 -15.421875 16.164062 -14.582031 16 -13.6875 C 15.695312 -12.40625 15.328125 -11.175781 14.890625 -10 C 14.453125 -8.820312 14.082031 -8.050781 13.78125 -7.6875 C 13.414062 -7.238281 13.234375 -6.875 13.234375 -6.59375 C 13.234375 -6.34375 12.851562 -5.488281 12.09375 -4.03125 C 11.394531 -2.488281 11.046875 -1.410156 11.046875 -0.796875 C 11.046875 -0.546875 11.0625 -0.347656 11.09375 -0.203125 C 11.175781 -0.347656 11.472656 -0.546875 11.984375 -0.796875 C 12.503906 -1.046875 13.132812 -1.320312 13.875 -1.625 C 14.625 -1.9375 15.125 -2.148438 15.375 -2.265625 C 17.53125 -3.410156 19.238281 -4.472656 20.5 -5.453125 Z M 4.109375 8.109375 C 4.640625 7.210938 4.726562 6.765625 4.375 6.765625 C 3.832031 6.765625 2.820312 7.363281 1.34375 8.5625 C -0.132812 9.769531 -1.457031 11.035156 -2.625 12.359375 C -3.789062 13.691406 -4.242188 14.484375 -3.984375 14.734375 C -3.398438 15.296875 -2.179688 14.820312 -0.328125 13.3125 C 1.515625 11.800781 2.992188 10.066406 4.109375 8.109375 Z M 7.765625 -5.59375 C 9.359375 -8.1875 10.15625 -9.640625 10.15625 -9.953125 C 10.15625 -10.566406 10.363281 -11.1875 10.78125 -11.8125 C 11.207031 -12.445312 11.460938 -13.195312 11.546875 -14.0625 C 11.660156 -14.875 11.550781 -15.335938 11.21875 -15.453125 C 10.851562 -15.566406 10.113281 -15.28125 9 -14.59375 C 7.894531 -13.90625 7.160156 -13.296875 6.796875 -12.765625 C 6.691406 -12.597656 6.394531 -12.3125 5.90625 -11.90625 C 5.414062 -11.5 4.898438 -11.015625 4.359375 -10.453125 C 3.828125 -9.898438 3.4375 -9.34375 3.1875 -8.78125 C 2.269531 -6.820312 1.921875 -5.40625 2.140625 -4.53125 C 2.390625 -3.5 2.820312 -2.921875 3.4375 -2.796875 C 4.0625 -2.671875 4.957031 -2.984375 6.125 -3.734375 C 6.664062 -4.046875 7.210938 -4.664062 7.765625 -5.59375 Z M 7.765625 -5.59375 "/></g></g></g><g fill="#9b3891" fill-opacity="1"><g transform="translate(377.972037, 824.549908)"><g><path d="M 26.875 -6.796875 C 27.46875 -7.335938 27.992188 -7.554688 28.453125 -7.453125 C 28.910156 -7.359375 29.15625 -6.914062 29.1875 -6.125 C 29.1875 -5.90625 29.148438 -5.691406 29.078125 -5.484375 C 29.015625 -5.273438 28.90625 -5.078125 28.75 -4.890625 C 28.59375 -4.710938 28.4375 -4.535156 28.28125 -4.359375 C 28.132812 -4.191406 27.945312 -4.023438 27.71875 -3.859375 C 27.5 -3.691406 27.3125 -3.550781 27.15625 -3.4375 C 27 -3.332031 26.796875 -3.203125 26.546875 -3.046875 C 26.296875 -2.890625 26.128906 -2.769531 26.046875 -2.6875 C 25.367188 -2.238281 24.679688 -1.875 23.984375 -1.59375 C 23.921875 -1.5625 23.835938 -1.519531 23.734375 -1.46875 C 23.671875 -1.332031 23.554688 -1.222656 23.390625 -1.140625 C 23.222656 -1.054688 22.972656 -0.96875 22.640625 -0.875 C 21.992188 -0.519531 21.039062 -0.269531 19.78125 -0.125 C 18.519531 0.0078125 17.367188 0.046875 16.328125 -0.015625 C 15.296875 -0.0859375 14.628906 -0.207031 14.328125 -0.375 C 14.066406 -0.539062 13.78125 -0.890625 13.46875 -1.421875 C 13.164062 -1.953125 12.898438 -2.484375 12.671875 -3.015625 C 12.453125 -3.554688 12.316406 -3.960938 12.265625 -4.234375 C 12.066406 -5.046875 11.992188 -5.914062 12.046875 -6.84375 C 12.140625 -7.800781 12.296875 -9.285156 12.515625 -11.296875 L 12.515625 -11.890625 C 12.515625 -12.023438 12.460938 -12.128906 12.359375 -12.203125 C 12.265625 -12.273438 12.132812 -12.320312 11.96875 -12.34375 C 11.800781 -12.34375 11.578125 -12.34375 11.296875 -12.34375 C 10.960938 -12.34375 10.582031 -12.398438 10.15625 -12.515625 C 9.738281 -12.628906 9.328125 -12.734375 8.921875 -12.828125 C 8.515625 -12.929688 8.160156 -12.984375 7.859375 -12.984375 C 7.878906 -12.984375 7.773438 -12.539062 7.546875 -11.65625 C 7.328125 -10.769531 7.039062 -9.835938 6.6875 -8.859375 C 6.34375 -7.878906 6.03125 -7.304688 5.75 -7.140625 C 4.738281 -6.554688 3.675781 -6.132812 2.5625 -5.875 C 1.101562 -5.539062 1.757812 -8.71875 4.53125 -15.40625 C 4.59375 -15.582031 4.734375 -15.9375 4.953125 -16.46875 C 5.179688 -17 5.335938 -17.367188 5.421875 -17.578125 C 5.503906 -17.785156 5.632812 -18.117188 5.8125 -18.578125 C 6 -19.046875 6.132812 -19.425781 6.21875 -19.71875 C 6.300781 -20.007812 6.390625 -20.363281 6.484375 -20.78125 C 6.585938 -21.207031 6.660156 -21.609375 6.703125 -21.984375 C 6.742188 -22.359375 6.765625 -22.742188 6.765625 -23.140625 C 6.765625 -23.585938 7.050781 -24.382812 7.625 -25.53125 C 8.195312 -26.6875 8.648438 -27.390625 8.984375 -27.640625 C 9.429688 -27.890625 10.039062 -27.976562 10.8125 -27.90625 C 11.582031 -27.832031 12.09375 -27.660156 12.34375 -27.390625 C 12.6875 -26.960938 12.6875 -25.335938 12.34375 -22.515625 C 12.09375 -20.660156 11.984375 -19.46875 12.015625 -18.9375 C 12.035156 -18.382812 12.1875 -17.9375 12.46875 -17.59375 C 12.8125 -17.3125 13.109375 -17.175781 13.359375 -17.1875 C 13.609375 -17.207031 14.082031 -17.425781 14.78125 -17.84375 C 15.820312 -18.4375 16.570312 -18.71875 17.03125 -18.6875 C 17.488281 -18.65625 17.914062 -18.332031 18.3125 -17.71875 C 18.625 -17.269531 18.765625 -16.863281 18.734375 -16.5 C 18.703125 -16.132812 18.492188 -15.4375 18.109375 -14.40625 C 17.546875 -12.925781 17.039062 -11.234375 16.59375 -9.328125 C 16.25 -7.816406 16.140625 -6.695312 16.265625 -5.96875 C 16.398438 -5.238281 16.859375 -4.382812 17.640625 -3.40625 C 17.972656 -2.925781 18.238281 -2.660156 18.4375 -2.609375 C 18.519531 -2.578125 18.664062 -2.59375 18.875 -2.65625 C 19.082031 -2.726562 19.304688 -2.8125 19.546875 -2.90625 C 19.785156 -3.007812 19.945312 -3.078125 20.03125 -3.109375 C 20.894531 -3.328125 21.46875 -3.507812 21.75 -3.65625 C 23.90625 -4.769531 25.613281 -5.816406 26.875 -6.796875 Z M 26.875 -6.796875 "/></g></g></g><g fill="#9b3891" fill-opacity="1"><g transform="translate(404.117138, 824.549908)"><g><path d="M 26.875 -5.125 C 27.40625 -5.539062 27.859375 -5.710938 28.234375 -5.640625 C 28.617188 -5.578125 28.8125 -5.207031 28.8125 -4.53125 C 28.8125 -4.394531 28.78125 -4.25 28.71875 -4.09375 C 28.664062 -3.9375 28.601562 -3.796875 28.53125 -3.671875 C 28.46875 -3.546875 28.363281 -3.410156 28.21875 -3.265625 C 28.082031 -3.128906 27.957031 -3.003906 27.84375 -2.890625 C 27.726562 -2.785156 27.585938 -2.671875 27.421875 -2.546875 C 27.253906 -2.421875 27.113281 -2.320312 27 -2.25 C 26.894531 -2.175781 26.753906 -2.082031 26.578125 -1.96875 C 26.410156 -1.863281 26.285156 -1.78125 26.203125 -1.71875 C 25.671875 -1.351562 25.113281 -1.046875 24.53125 -0.796875 C 24.46875 -0.765625 24.128906 -0.597656 23.515625 -0.296875 L 23.3125 -0.046875 C 22.550781 0.679688 21.457031 1.128906 20.03125 1.296875 C 19.132812 1.410156 18.441406 1.414062 17.953125 1.3125 C 17.460938 1.21875 16.785156 0.976562 15.921875 0.59375 C 14.628906 -0.03125 13.773438 -0.535156 13.359375 -0.921875 C 13.078125 -1.148438 12.835938 -1.25 12.640625 -1.21875 C 12.441406 -1.1875 12.078125 -0.960938 11.546875 -0.546875 C 9.835938 0.679688 7.800781 1.375 5.4375 1.53125 C 3.070312 1.6875 1.523438 1.21875 0.796875 0.125 C 0.347656 -0.570312 0.144531 -1.925781 0.1875 -3.9375 C 0.226562 -5.957031 0.488281 -7.40625 0.96875 -8.28125 C 1.382812 -9.03125 1.707031 -9.585938 1.9375 -9.953125 C 2.1875 -10.316406 2.421875 -10.65625 2.640625 -10.96875 C 2.867188 -11.300781 3.25 -11.789062 3.78125 -12.4375 C 5.539062 -14.613281 6.925781 -16.109375 7.9375 -16.921875 C 8.71875 -17.535156 9.640625 -18.0625 10.703125 -18.5 C 11.773438 -18.9375 12.890625 -19.222656 14.046875 -19.359375 C 15.210938 -19.503906 16.242188 -19.351562 17.140625 -18.90625 C 18.234375 -18.34375 18.90625 -17.378906 19.15625 -16.015625 C 19.40625 -14.660156 19.375 -13.34375 19.0625 -12.0625 C 18.757812 -10.789062 18.328125 -9.597656 17.765625 -8.484375 C 17.285156 -7.421875 16.925781 -6.257812 16.6875 -5 C 16.457031 -3.738281 16.46875 -2.910156 16.71875 -2.515625 C 17.25 -1.453125 19 -1.382812 21.96875 -2.3125 C 22.082031 -2.34375 22.191406 -2.359375 22.296875 -2.359375 C 22.460938 -2.410156 22.59375 -2.460938 22.6875 -2.515625 C 24.476562 -3.441406 25.875 -4.3125 26.875 -5.125 Z M 14.203125 -13.015625 C 14.503906 -13.179688 14.664062 -13.320312 14.6875 -13.4375 C 14.71875 -13.550781 14.648438 -13.691406 14.484375 -13.859375 C 14.148438 -14.222656 13.675781 -14.457031 13.0625 -14.5625 C 12.445312 -14.675781 11.84375 -14.648438 11.25 -14.484375 C 10.664062 -14.347656 9.773438 -13.789062 8.578125 -12.8125 C 7.390625 -11.832031 6.585938 -10.992188 6.171875 -10.296875 C 5.609375 -9.484375 5.132812 -8.753906 4.75 -8.109375 C 4.269531 -7.429688 3.945312 -6.445312 3.78125 -5.15625 C 3.613281 -3.875 3.679688 -3.035156 3.984375 -2.640625 C 4.265625 -2.304688 4.878906 -2.140625 5.828125 -2.140625 C 6.785156 -2.140625 7.6875 -2.296875 8.53125 -2.609375 C 9.34375 -2.992188 9.941406 -3.582031 10.328125 -4.375 C 11.003906 -5.6875 11.550781 -6.75 11.96875 -7.5625 C 12.695312 -8.820312 13.0625 -9.675781 13.0625 -10.125 C 13.0625 -10.40625 13.179688 -10.691406 13.421875 -10.984375 C 13.660156 -11.273438 13.722656 -11.585938 13.609375 -11.921875 C 13.460938 -12.367188 13.660156 -12.734375 14.203125 -13.015625 Z M 14.203125 -13.015625 "/></g></g></g><g fill="#9b3891" fill-opacity="1"><g transform="translate(430.36725, 824.549908)"><g><path d="M 37.171875 -6.390625 C 37.785156 -6.890625 38.320312 -7.085938 38.78125 -6.984375 C 39.25 -6.890625 39.492188 -6.453125 39.515625 -5.671875 C 39.515625 -5.421875 39.457031 -5.164062 39.34375 -4.90625 C 39.238281 -4.65625 39.113281 -4.4375 38.96875 -4.25 C 38.832031 -4.070312 38.625 -3.867188 38.34375 -3.640625 C 38.0625 -3.421875 37.84375 -3.253906 37.6875 -3.140625 C 37.539062 -3.035156 37.304688 -2.878906 36.984375 -2.671875 C 36.660156 -2.460938 36.457031 -2.328125 36.375 -2.265625 C 35.5 -1.679688 34.660156 -1.050781 33.859375 -0.375 C 32.765625 0.488281 31.628906 1.085938 30.453125 1.421875 C 29.078125 1.816406 28.015625 2.03125 27.265625 2.0625 C 26.472656 2.082031 25.503906 1.925781 24.359375 1.59375 C 23.265625 1.3125 22.390625 0.941406 21.734375 0.484375 C 21.078125 0.0234375 20.566406 -0.566406 20.203125 -1.296875 C 19.835938 -2.023438 19.644531 -2.941406 19.625 -4.046875 C 19.613281 -5.160156 19.75 -6.414062 20.03125 -7.8125 C 20.28125 -9.238281 20.703125 -10.960938 21.296875 -12.984375 C 21.460938 -13.484375 21.40625 -13.734375 21.125 -13.734375 C 20.363281 -13.734375 18.890625 -12.390625 16.703125 -9.703125 C 14.523438 -7.015625 12.835938 -4.492188 11.640625 -2.140625 C 10.796875 -0.515625 10.09375 0.460938 9.53125 0.796875 C 8.96875 1.128906 8.335938 0.960938 7.640625 0.296875 C 7.054688 -0.234375 6.773438 -0.742188 6.796875 -1.234375 C 6.828125 -1.722656 7.191406 -2.769531 7.890625 -4.375 C 8.484375 -5.539062 8.78125 -6.347656 8.78125 -6.796875 C 8.78125 -7.191406 9.070312 -8.003906 9.65625 -9.234375 C 10.050781 -10.640625 10.175781 -11.382812 10.03125 -11.46875 C 9.726562 -11.46875 9.117188 -10.96875 8.203125 -9.96875 C 7.296875 -8.976562 6.34375 -7.789062 5.34375 -6.40625 C 4.351562 -5.019531 3.609375 -3.847656 3.109375 -2.890625 C 2.328125 -1.441406 1.613281 -0.519531 0.96875 -0.125 C 0.320312 0.269531 -0.320312 0.1875 -0.96875 -0.375 C -1.582031 -0.9375 -1.816406 -1.628906 -1.671875 -2.453125 C -1.535156 -3.285156 -0.976562 -4.640625 0 -6.515625 C 0.28125 -7.097656 0.550781 -7.957031 0.8125 -9.09375 C 1.082031 -10.226562 1.34375 -11.035156 1.59375 -11.515625 C 2.519531 -13.492188 3.53125 -14.90625 4.625 -15.75 C 4.875 -15.945312 5.140625 -16.117188 5.421875 -16.265625 C 5.703125 -16.421875 5.988281 -16.519531 6.28125 -16.5625 C 6.570312 -16.601562 6.765625 -16.507812 6.859375 -16.28125 C 6.960938 -16.0625 6.957031 -15.6875 6.84375 -15.15625 C 6.59375 -14.289062 6.691406 -13.898438 7.140625 -13.984375 C 7.472656 -14.015625 7.863281 -14.394531 8.3125 -15.125 C 8.957031 -16.101562 9.710938 -16.898438 10.578125 -17.515625 C 10.921875 -17.734375 11.203125 -17.898438 11.421875 -18.015625 C 11.703125 -18.128906 11.882812 -18.203125 11.96875 -18.234375 C 12.113281 -18.316406 12.3125 -18.34375 12.5625 -18.3125 C 12.8125 -18.28125 12.992188 -18.253906 13.109375 -18.234375 C 13.210938 -18.234375 13.4375 -18.175781 13.78125 -18.0625 C 14.144531 -17.945312 14.421875 -17.875 14.609375 -17.84375 C 15.398438 -17.675781 15.796875 -17.453125 15.796875 -17.171875 C 15.847656 -17.117188 15.890625 -16.703125 15.921875 -15.921875 C 15.972656 -15.554688 16.039062 -15.289062 16.125 -15.125 C 16.207031 -14.957031 16.375 -14.878906 16.625 -14.890625 C 16.882812 -14.898438 17.195312 -14.992188 17.5625 -15.171875 C 17.925781 -15.359375 18.46875 -15.691406 19.1875 -16.171875 C 20.875 -17.234375 22.316406 -17.847656 23.515625 -18.015625 C 24.410156 -18.097656 24.96875 -18.078125 25.1875 -17.953125 C 25.414062 -17.828125 25.65625 -17.5 25.90625 -16.96875 C 26.25 -16.101562 26.320312 -15 26.125 -13.65625 C 25.925781 -12.3125 25.5625 -11.050781 25.03125 -9.875 C 24.414062 -8.695312 24.109375 -7.800781 24.109375 -7.1875 C 24.109375 -6.675781 23.953125 -5.929688 23.640625 -4.953125 C 23.335938 -4.117188 23.390625 -3.335938 23.796875 -2.609375 C 24.203125 -1.878906 24.835938 -1.429688 25.703125 -1.265625 C 26.203125 -1.179688 26.859375 -1.222656 27.671875 -1.390625 C 27.898438 -1.441406 29.257812 -2 31.75 -3.0625 C 31.75 -3.0625 32.007812 -3.21875 32.53125 -3.53125 C 33.050781 -3.832031 33.609375 -4.160156 34.203125 -4.515625 C 34.804688 -4.867188 35.398438 -5.222656 35.984375 -5.578125 C 36.578125 -5.941406 36.972656 -6.210938 37.171875 -6.390625 Z M 37.171875 -6.390625 "/></g></g></g><g fill="#9b3891" fill-opacity="1"><g transform="translate(467.642405, 824.549908)"><g><path d="M 37.171875 -6.390625 C 37.785156 -6.890625 38.320312 -7.085938 38.78125 -6.984375 C 39.25 -6.890625 39.492188 -6.453125 39.515625 -5.671875 C 39.515625 -5.421875 39.457031 -5.164062 39.34375 -4.90625 C 39.238281 -4.65625 39.113281 -4.4375 38.96875 -4.25 C 38.832031 -4.070312 38.625 -3.867188 38.34375 -3.640625 C 38.0625 -3.421875 37.84375 -3.253906 37.6875 -3.140625 C 37.539062 -3.035156 37.304688 -2.878906 36.984375 -2.671875 C 36.660156 -2.460938 36.457031 -2.328125 36.375 -2.265625 C 35.5 -1.679688 34.660156 -1.050781 33.859375 -0.375 C 32.765625 0.488281 31.628906 1.085938 30.453125 1.421875 C 29.078125 1.816406 28.015625 2.03125 27.265625 2.0625 C 26.472656 2.082031 25.503906 1.925781 24.359375 1.59375 C 23.265625 1.3125 22.390625 0.941406 21.734375 0.484375 C 21.078125 0.0234375 20.566406 -0.566406 20.203125 -1.296875 C 19.835938 -2.023438 19.644531 -2.941406 19.625 -4.046875 C 19.613281 -5.160156 19.75 -6.414062 20.03125 -7.8125 C 20.28125 -9.238281 20.703125 -10.960938 21.296875 -12.984375 C 21.460938 -13.484375 21.40625 -13.734375 21.125 -13.734375 C 20.363281 -13.734375 18.890625 -12.390625 16.703125 -9.703125 C 14.523438 -7.015625 12.835938 -4.492188 11.640625 -2.140625 C 10.796875 -0.515625 10.09375 0.460938 9.53125 0.796875 C 8.96875 1.128906 8.335938 0.960938 7.640625 0.296875 C 7.054688 -0.234375 6.773438 -0.742188 6.796875 -1.234375 C 6.828125 -1.722656 7.191406 -2.769531 7.890625 -4.375 C 8.484375 -5.539062 8.78125 -6.347656 8.78125 -6.796875 C 8.78125 -7.191406 9.070312 -8.003906 9.65625 -9.234375 C 10.050781 -10.640625 10.175781 -11.382812 10.03125 -11.46875 C 9.726562 -11.46875 9.117188 -10.96875 8.203125 -9.96875 C 7.296875 -8.976562 6.34375 -7.789062 5.34375 -6.40625 C 4.351562 -5.019531 3.609375 -3.847656 3.109375 -2.890625 C 2.328125 -1.441406 1.613281 -0.519531 0.96875 -0.125 C 0.320312 0.269531 -0.320312 0.1875 -0.96875 -0.375 C -1.582031 -0.9375 -1.816406 -1.628906 -1.671875 -2.453125 C -1.535156 -3.285156 -0.976562 -4.640625 0 -6.515625 C 0.28125 -7.097656 0.550781 -7.957031 0.8125 -9.09375 C 1.082031 -10.226562 1.34375 -11.035156 1.59375 -11.515625 C 2.519531 -13.492188 3.53125 -14.90625 4.625 -15.75 C 4.875 -15.945312 5.140625 -16.117188 5.421875 -16.265625 C 5.703125 -16.421875 5.988281 -16.519531 6.28125 -16.5625 C 6.570312 -16.601562 6.765625 -16.507812 6.859375 -16.28125 C 6.960938 -16.0625 6.957031 -15.6875 6.84375 -15.15625 C 6.59375 -14.289062 6.691406 -13.898438 7.140625 -13.984375 C 7.472656 -14.015625 7.863281 -14.394531 8.3125 -15.125 C 8.957031 -16.101562 9.710938 -16.898438 10.578125 -17.515625 C 10.921875 -17.734375 11.203125 -17.898438 11.421875 -18.015625 C 11.703125 -18.128906 11.882812 -18.203125 11.96875 -18.234375 C 12.113281 -18.316406 12.3125 -18.34375 12.5625 -18.3125 C 12.8125 -18.28125 12.992188 -18.253906 13.109375 -18.234375 C 13.210938 -18.234375 13.4375 -18.175781 13.78125 -18.0625 C 14.144531 -17.945312 14.421875 -17.875 14.609375 -17.84375 C 15.398438 -17.675781 15.796875 -17.453125 15.796875 -17.171875 C 15.847656 -17.117188 15.890625 -16.703125 15.921875 -15.921875 C 15.972656 -15.554688 16.039062 -15.289062 16.125 -15.125 C 16.207031 -14.957031 16.375 -14.878906 16.625 -14.890625 C 16.882812 -14.898438 17.195312 -14.992188 17.5625 -15.171875 C 17.925781 -15.359375 18.46875 -15.691406 19.1875 -16.171875 C 20.875 -17.234375 22.316406 -17.847656 23.515625 -18.015625 C 24.410156 -18.097656 24.96875 -18.078125 25.1875 -17.953125 C 25.414062 -17.828125 25.65625 -17.5 25.90625 -16.96875 C 26.25 -16.101562 26.320312 -15 26.125 -13.65625 C 25.925781 -12.3125 25.5625 -11.050781 25.03125 -9.875 C 24.414062 -8.695312 24.109375 -7.800781 24.109375 -7.1875 C 24.109375 -6.675781 23.953125 -5.929688 23.640625 -4.953125 C 23.335938 -4.117188 23.390625 -3.335938 23.796875 -2.609375 C 24.203125 -1.878906 24.835938 -1.429688 25.703125 -1.265625 C 26.203125 -1.179688 26.859375 -1.222656 27.671875 -1.390625 C 27.898438 -1.441406 29.257812 -2 31.75 -3.0625 C 31.75 -3.0625 32.007812 -3.21875 32.53125 -3.53125 C 33.050781 -3.832031 33.609375 -4.160156 34.203125 -4.515625 C 34.804688 -4.867188 35.398438 -5.222656 35.984375 -5.578125 C 36.578125 -5.941406 36.972656 -6.210938 37.171875 -6.390625 Z M 37.171875 -6.390625 "/></g></g></g><g fill="#9b3891" fill-opacity="1"><g transform="translate(504.91756, 824.549908)"><g><path d="M 19.734375 -4.703125 C 20.347656 -5.203125 20.882812 -5.40625 21.34375 -5.3125 C 21.8125 -5.21875 22.046875 -4.773438 22.046875 -3.984375 C 22.078125 -3.734375 22.03125 -3.484375 21.90625 -3.234375 C 21.78125 -2.984375 21.644531 -2.765625 21.5 -2.578125 C 21.363281 -2.398438 21.160156 -2.195312 20.890625 -1.96875 C 20.628906 -1.75 20.410156 -1.582031 20.234375 -1.46875 C 20.066406 -1.351562 19.820312 -1.191406 19.5 -0.984375 C 19.1875 -0.773438 19 -0.644531 18.9375 -0.59375 C 18.269531 -0.144531 17.585938 0.234375 16.890625 0.546875 C 16.828125 0.578125 16.742188 0.613281 16.640625 0.65625 C 16.546875 0.695312 16.441406 0.738281 16.328125 0.78125 C 16.222656 0.820312 16.113281 0.863281 16 0.90625 C 15.882812 0.945312 15.796875 0.984375 15.734375 1.015625 L 15.625 1.046875 C 13.914062 1.742188 12.082031 2.148438 10.125 2.265625 C 8.101562 2.378906 6.632812 2.195312 5.71875 1.71875 C 5.601562 1.664062 5.148438 1.46875 4.359375 1.125 C 3.578125 0.789062 3.019531 0.5 2.6875 0.25 C 2.039062 -0.164062 1.425781 -1.078125 0.84375 -2.484375 C -0.25 -5.003906 -0.796875 -7.226562 -0.796875 -9.15625 C -0.796875 -10.332031 -0.585938 -11.875 -0.171875 -13.78125 C -0.140625 -13.882812 -0.0859375 -14.117188 -0.015625 -14.484375 C 0.046875 -14.847656 0.101562 -15.117188 0.15625 -15.296875 C 0.21875 -15.484375 0.289062 -15.738281 0.375 -16.0625 C 0.457031 -16.382812 0.539062 -16.65625 0.625 -16.875 C 0.707031 -17.101562 0.804688 -17.335938 0.921875 -17.578125 C 1.035156 -17.816406 1.148438 -18.035156 1.265625 -18.234375 C 1.847656 -19.046875 2.320312 -19.628906 2.6875 -19.984375 C 4.195312 -21.554688 6.113281 -22.257812 8.4375 -22.09375 C 10.84375 -21.894531 12.144531 -21.097656 12.34375 -19.703125 C 12.507812 -18.609375 12.445312 -17.476562 12.15625 -16.3125 C 11.863281 -15.15625 11.5 -14.195312 11.0625 -13.4375 C 10.632812 -12.6875 10.035156 -11.707031 9.265625 -10.5 C 8.492188 -9.289062 7.941406 -8.367188 7.609375 -7.734375 C 6.367188 -5.398438 5.75 -4.007812 5.75 -3.5625 C 5.75 -3.207031 6.097656 -2.691406 6.796875 -2.015625 C 7.242188 -1.597656 7.644531 -1.347656 8 -1.265625 C 8.351562 -1.179688 8.988281 -1.222656 9.90625 -1.390625 C 11.363281 -1.585938 12.945312 -1.9375 14.65625 -2.4375 C 15.300781 -2.65625 16.238281 -3.03125 17.46875 -3.5625 C 18.695312 -4.101562 19.453125 -4.484375 19.734375 -4.703125 Z M 3.4375 -7.6875 C 3.695312 -7.6875 4.398438 -8.78125 5.546875 -10.96875 C 6.660156 -13.144531 7.21875 -14.457031 7.21875 -14.90625 C 7.21875 -15.4375 6.929688 -15.78125 6.359375 -15.9375 C 5.785156 -16.09375 5.332031 -15.960938 5 -15.546875 C 4.71875 -15.203125 4.4375 -14.695312 4.15625 -14.03125 C 3.875 -13.351562 3.648438 -12.664062 3.484375 -11.96875 C 3.347656 -11.269531 3.222656 -10.597656 3.109375 -9.953125 C 2.992188 -9.304688 2.960938 -8.765625 3.015625 -8.328125 C 3.078125 -7.898438 3.21875 -7.6875 3.4375 -7.6875 Z M 3.4375 -7.6875 "/></g></g></g></svg>