<svg width="600" height="315" viewBox="0 0 600 315" fill="none" xmlns="http://www.w3.org/2000/svg">
  <path d="M600 0H0V315H600V0Z" fill="white"/>
  <path d="M246.845 133.059C247.746 133.741 248.475 134.549 249.033 135.476C249.585 136.392 249.871 137.236 249.887 137.997C249.913 138.762 249.616 139.58 248.991 140.455C248.376 141.33 247.637 142.049 246.762 142.601C245.887 143.158 245.017 143.434 244.158 143.434C241.767 143.434 238.225 141.767 233.533 138.434C230.934 136.517 227.71 137.226 223.866 140.559C222.116 141.924 221.012 142.601 220.553 142.601C220.246 142.601 219.855 142.991 219.387 143.767C218.928 144.533 218.543 145.465 218.241 146.559C217.934 147.674 217.704 148.783 217.553 149.892C217.413 151.007 217.371 151.971 217.428 152.788C217.496 153.596 217.725 154.038 218.116 154.122C218.199 154.122 218.454 154.142 218.887 154.184C219.262 154.226 219.876 154.267 220.741 154.309C221.501 154.309 222.204 154.309 222.845 154.309C224.079 154.392 225.038 154.507 225.72 154.642C226.413 154.767 226.991 155.007 227.449 155.351C227.918 155.684 228.413 156.194 228.928 156.872C230.079 158.236 231.079 159.924 231.928 161.934C232.23 162.7 232.371 163.392 232.345 164.017C232.329 164.632 232.23 165.116 232.053 165.476C231.887 165.84 231.533 166.215 230.991 166.601C230.46 166.991 230.017 167.262 229.658 167.413C229.293 167.554 228.73 167.778 227.97 168.08C227.204 168.372 226.668 168.58 226.366 168.705C225.6 169.054 224.543 169.465 223.199 169.934C221.85 170.408 220.876 170.783 220.283 171.059C219.684 171.325 218.908 171.846 217.949 172.622C216.991 173.387 216.017 174.366 215.033 175.559C213.585 177.392 212.949 178.887 213.116 180.038C213.418 182.262 214.533 183.804 216.449 184.663C218.366 185.512 220.616 185.757 223.199 185.392C225.783 185.033 228.47 184.413 231.262 183.538C234.053 182.663 236.517 181.705 238.658 180.663C240.793 179.611 242.309 178.721 243.199 177.997C244.184 177.179 245.043 176.846 245.783 176.997C246.533 177.153 246.928 177.866 246.97 179.142C246.97 179.658 246.751 180.267 246.324 180.976C245.908 181.674 245.47 182.267 245.012 182.767C244.564 183.257 243.97 183.887 243.22 184.663C242.48 185.429 242.053 185.872 241.928 185.997C240.262 187.83 237.98 189.283 235.095 190.351C232.22 191.418 229.142 192.226 225.866 192.767C218.783 193.918 213.1 193.002 208.824 190.017C208.184 189.559 207.626 189.096 207.158 188.622C206.699 188.153 206.329 187.653 206.053 187.122C205.772 186.58 205.538 186.069 205.345 185.58C205.147 185.096 205.038 184.538 205.012 183.913C204.996 183.288 204.996 182.736 205.012 182.247C205.038 181.762 205.126 181.163 205.283 180.455C205.434 179.747 205.559 179.163 205.658 178.705C205.767 178.236 205.928 177.59 206.137 176.767C206.48 175.575 207.725 173.059 209.866 169.226C212.335 164.658 213.975 162.59 214.783 163.017C214.866 163.059 214.928 163.101 214.97 163.142C212.845 160.424 211.204 157.825 210.053 155.351C208.897 152.866 208.491 150.325 208.824 147.726C209.126 145.158 209.876 142.851 211.074 140.809C212.267 138.767 213.975 136.825 216.199 134.976C217.767 133.7 219.454 132.7 221.262 131.976C223.079 131.257 225.871 130.512 229.637 129.747C230.788 129.486 231.512 129.226 231.803 128.976C232.105 128.715 232.241 128.158 232.199 127.309C232.116 126.924 232.121 126.538 232.22 126.163C232.329 125.778 232.501 125.413 232.741 125.08C232.975 124.736 233.262 124.392 233.595 124.059C233.939 123.715 234.303 123.424 234.678 123.184C235.064 122.95 235.449 122.757 235.824 122.601C236.21 122.45 236.6 122.372 236.991 122.372C237.751 122.372 239.137 122.767 241.137 123.559C243.147 124.351 244.158 124.944 244.158 125.33C244.158 125.663 243.6 126.471 242.491 127.747C241.6 128.986 241.246 129.851 241.428 130.351C241.621 130.84 242.533 131.278 244.158 131.663C245.059 131.913 245.954 132.382 246.845 133.059Z" fill="#9B3891"/>
  <path d="M391.631 178.247C391.631 178.247 391.652 178.226 391.694 178.184C391.736 178.142 391.777 178.122 391.819 178.122C392.845 177.221 393.678 176.924 394.319 177.226C394.788 177.476 395.09 177.924 395.215 178.559C395.475 180.226 394.371 181.976 391.902 183.809C388.303 186.424 384.611 188.903 380.819 191.247C380.262 191.58 379.84 191.788 379.548 191.872C379.116 191.965 378.496 191.903 377.694 191.684C375.204 191.043 371.319 189.892 366.027 188.226C363.736 187.674 361.923 187.267 360.59 187.017C358.34 186.59 356.824 186.137 356.048 185.663C355.366 185.247 354.006 185.679 351.965 186.955C350.256 187.986 348.59 188.778 346.965 189.33C345.34 189.872 343.715 190.142 342.09 190.142C340.475 190.142 338.934 189.7 337.465 188.809C335.991 187.908 334.72 186.559 333.652 184.767C333.444 184.434 333.267 184.09 333.131 183.726C333.006 183.366 332.923 182.971 332.881 182.538C332.84 182.111 332.819 181.757 332.819 181.476C332.819 181.2 332.861 180.799 332.944 180.267C333.027 179.726 333.09 179.366 333.131 179.184C333.184 178.991 333.283 178.59 333.423 177.976C333.574 177.351 333.652 176.976 333.652 176.851C333.996 175.392 334.579 174.038 335.402 172.788C336.236 171.528 337.204 170.7 338.319 170.309C339.736 169.799 341.621 169.658 343.986 169.892C346.361 170.132 347.97 170.59 348.819 171.267C351.288 173.142 353.22 173.84 354.611 173.351C355.996 172.866 357.506 170.976 359.131 167.684C359.975 165.892 361.131 163.486 362.59 160.455C365.475 154.486 363.746 151.778 357.402 152.33C355.178 152.538 353.277 152.221 351.694 151.372C348.887 149.788 346.559 148.721 344.715 148.163C343.517 147.83 342.658 147.283 342.131 146.517C341.6 145.741 341.595 145.033 342.111 144.392C342.527 143.84 343.267 143.778 344.34 144.205C346.517 145.137 348.329 145.84 349.777 146.309C351.236 146.783 352.621 147.08 353.944 147.205C355.303 147.33 356.991 147.372 359.006 147.33C363.142 147.33 365.72 146.991 366.736 146.309C367.163 145.934 367.699 145.226 368.34 144.184C368.975 143.132 369.517 141.945 369.965 140.622C370.423 139.304 370.756 138.09 370.965 136.976C371.09 135.825 371.887 134.236 373.361 132.205C374.829 130.179 376.319 128.674 377.819 127.684C379.652 126.45 382.1 126.726 385.173 128.517C386.241 129.158 386.881 129.747 387.09 130.288C387.309 130.82 387.392 132.017 387.34 133.892C387.256 136.283 386.913 138.351 386.319 140.101C385.72 141.851 384.783 143.382 383.506 144.684C382.225 145.991 380.538 147.153 378.444 148.163C376.444 149.153 374.986 150.34 374.069 151.726C373.152 153.116 371.819 156.111 370.069 160.705C367.079 168.429 364.673 173.809 362.84 176.851C361.767 178.59 361.517 180.012 362.09 181.122C362.673 182.236 364.012 182.882 366.111 183.059C368.871 183.309 371.923 183.971 375.256 185.038C377.34 185.762 379.595 185.653 382.027 184.705C382.928 184.413 383.777 184.054 384.569 183.622C385.361 183.195 386.241 182.596 387.215 181.83C388.199 181.07 388.881 180.538 389.256 180.247C389.642 179.945 390.434 179.278 391.631 178.247ZM377.048 136.205C375.298 139.111 375.256 140.601 376.923 140.684C377.517 140.601 378.241 140.163 379.09 139.372C379.949 138.58 380.642 137.7 381.173 136.726C381.699 135.741 381.84 135.033 381.59 134.601C380.6 132.684 379.09 133.221 377.048 136.205ZM347.027 181.392C348.819 180.366 349.694 179.512 349.652 178.83C349.611 178.153 348.631 177.465 346.715 176.767C345.006 176.049 343.97 175.705 343.611 175.747C343.246 175.788 342.553 176.221 341.527 177.038C340.579 177.846 340.142 178.59 340.215 179.267C340.283 179.95 340.887 180.741 342.027 181.642C342.97 182.366 343.642 182.705 344.048 182.663C344.449 182.622 345.444 182.2 347.027 181.392Z" fill="#9B3891"/>
  <mask id="mask0_1532_46" style="mask-type:luminance" maskUnits="userSpaceOnUse" x="263" y="121" width="68" height="68">
    <path d="M263.406 121H330.072V188.974H263.406V121Z" fill="white"/>
  </mask>
  <g mask="url(#mask0_1532_46)">
    <path fill-rule="evenodd" clip-rule="evenodd" d="M274.546 188.906C274.687 188.849 276.031 188.333 276.338 188.156C277.734 187.38 279.083 186.536 280.421 185.677C284.947 182.797 289.301 179.583 293.499 176.245C304.973 167.115 316.853 156.797 324.921 144.411C326.525 141.943 328.77 138.318 329.661 134.734C330.275 132.25 330.239 129.786 328.968 127.703C327.812 125.792 325.932 124.87 323.822 124.583C320.781 124.167 317.26 125.089 314.89 126.141C307.01 129.667 300.38 139.302 299.046 148.286C298.88 147.75 298.702 147.224 298.51 146.703C297.572 144.068 296.4 141.51 295.093 139.042C292.744 134.63 288.103 127.896 282.603 124.411C278.838 122.026 274.676 121.151 270.551 123.443C265.057 126.49 263.26 131.438 263.603 136.776C264.114 144.63 269.343 153.339 274.145 157.875C276.062 159.688 278.093 161.505 280.286 162.984C280.994 163.469 289.822 168.229 294.65 169.51C294.895 169.578 295.156 169.432 295.223 169.182C295.291 168.938 295.135 168.677 294.89 168.609C290.15 167.354 281.505 162.682 280.807 162.208C278.666 160.76 276.666 158.969 274.791 157.193C270.124 152.786 265.036 144.344 264.536 136.714C264.218 131.734 265.88 127.109 271.005 124.26C274.807 122.146 278.635 123 282.103 125.203C287.463 128.599 291.973 135.182 294.265 139.484C295.562 141.906 296.708 144.432 297.635 147.016C298.02 148.099 298.369 149.208 298.63 150.333C298.702 150.667 298.775 151.531 298.801 151.651C298.874 152.021 299.197 152.031 299.26 152.031C299.385 152.042 299.557 152.005 299.671 151.797C299.682 151.776 299.734 151.682 299.734 151.479C299.734 142.036 306.739 130.807 315.27 126.995C317.51 126 320.827 125.115 323.692 125.51C325.52 125.76 327.166 126.536 328.171 128.193C329.307 130.057 329.307 132.281 328.755 134.505C327.89 137.995 325.697 141.505 324.135 143.896C316.124 156.203 304.317 166.443 292.916 175.516C288.739 178.833 284.416 182.026 279.921 184.891C278.593 185.74 277.265 186.578 275.885 187.339C275.572 187.516 274.364 187.974 274.171 188.052C274.057 188.094 274.005 188.151 273.994 188.161C273.786 188.37 273.848 188.578 273.9 188.698C273.926 188.75 274.057 189.021 274.411 188.953C274.463 188.943 274.505 188.927 274.546 188.906ZM274.713 188.229C274.656 188.13 274.515 187.984 274.239 188.031C274.432 187.995 274.614 188.083 274.713 188.229Z" fill="#9B3891"/>
  </g>
</svg>
